<!-- icon666.com - MILLIONS vector ICONS FREE --><svg id="Layer_1" enable-background="new 0 0 512 512" viewBox="0 0 512 512" xmlns="http://www.w3.org/2000/svg"><circle cx="256" cy="256" fill="#ec407a" r="256"></circle><g><g><g id="XMLID_1_" fill="#fffffe"><path d="m333.2 290.3c-6.8 0-13.3 1.2-19.3 3.4-18.9 6.9-33.1 23.8-36.3 44.3-.1.5-.1.9-.2 1.4s-.1.9-.2 1.4c-.1.8-.1 1.5-.2 2.3v.1.9 2.4 1.4 1s0 .6 0 .9 0 .5 0 .8c0 .4.1.7.1 1.1 0 .3.1.6.1.8v.2c0 .4.1.7.1 1.1.6 4.8 1.9 9.6 3.8 14.1.2.4.3.8.5 1.1s.3.7.5 1.1c.3.7.6 1.3 1 2 9.3 18.2 28.3 30.7 50.1 30.7 31 0 56.2-25.2 56.2-56.2 0-31.1-25.2-56.3-56.2-56.3zm40.9 65.6h-6c-.8 3-2 5.9-3.6 8.7l4.2 4.2c.7.7 1 1.5 1 2.5 0 .9-.4 1.8-1 2.5l-8.3 8.3c-1.4 1.4-3.6 1.4-4.9 0l-4.2-4.2c-2.7 1.6-5.6 2.8-8.7 3.6v6c0 1.9-1.6 3.5-3.5 3.5h-11.8c-1.9 0-3.5-1.6-3.5-3.5v-6c-3-.8-5.9-2-8.7-3.6l-4.2 4.2c-1.4 1.4-3.6 1.4-4.9 0l-8.3-8.3c-1.4-1.4-1.4-3.6 0-4.9l4.2-4.2c-1.6-2.7-2.8-5.6-3.6-8.7h-6c-1.9 0-3.5-1.6-3.5-3.5v-11.8c0-1.9 1.6-3.5 3.5-3.5h6c.8-3 2-5.9 3.6-8.7l-4.2-4.2c-1.4-1.4-1.4-3.6 0-4.9l8.3-8.3c1.4-1.4 3.6-1.4 4.9 0l4.2 4.2c2.7-1.6 5.6-2.8 8.7-3.6v-6c0-1.9 1.6-3.5 3.5-3.5h11.8c1.9 0 3.5 1.6 3.5 3.5v6c3 .8 5.9 2 8.7 3.6l4.2-4.2c1.4-1.4 3.6-1.4 4.9 0l8.3 8.3c1.4 1.4 1.4 3.6 0 4.9l-4.2 4.2c1.6 2.7 2.8 5.6 3.6 8.7h6c1.9 0 3.5 1.6 3.5 3.5v11.8c0 1.9-1.6 3.4-3.5 3.4z"></path><path d="m365.3 344.1c-1.7 0-3.1-1.2-3.4-2.9-.8-4.1-2.3-7.9-4.7-11.3-1-1.4-.8-3.3.4-4.5l3.7-3.7-3.4-3.4-3.7 3.7c-1.2 1.2-3.1 1.4-4.5.4-3.4-2.4-7.2-3.9-11.3-4.7-1.7-.3-2.9-1.8-2.9-3.4v-5.3h-4.8v5.3c0 1.7-1.2 3.1-2.9 3.4-4.1.7-7.9 2.3-11.3 4.7-1.4 1-3.3.8-4.5-.4l-3.7-3.7-3.4 3.4 3.7 3.7c1.2 1.2 1.4 3.1.4 4.5-2.4 3.4-3.9 7.2-4.7 11.3-.3 1.7-1.7 2.9-3.4 2.9h-5.3v4.8h5.3c1.7 0 3.1 1.2 3.4 2.9.8 4.1 2.3 7.9 4.7 11.3 1 1.4.8 3.3-.4 4.5l-3.7 3.7 3.4 3.4 3.7-3.7c1.2-1.2 3.1-1.4 4.5-.4 3.4 2.4 7.2 3.9 11.3 4.7 1.7.3 2.9 1.7 2.9 3.4v5.3h4.8v-5.3c0-1.7 1.2-3.1 2.9-3.4 4.1-.7 7.9-2.3 11.3-4.7 1.4-1 3.3-.8 4.5.4l3.7 3.7 3.4-3.4-3.7-3.7c-1.2-1.2-1.4-3.1-.4-4.5 2.4-3.4 3.9-7.2 4.7-11.3.3-1.7 1.7-2.9 3.4-2.9h5.3v-4.8zm-32.1 22.3c-11 0-19.9-8.9-19.9-19.9s8.9-19.9 19.9-19.9 19.9 8.9 19.9 19.9-9 19.9-19.9 19.9z"></path><path d="m346.1 346.5c0 7.1-5.8 12.9-12.9 12.9s-12.9-5.8-12.9-12.9 5.8-12.9 12.9-12.9 12.9 5.8 12.9 12.9z"></path><path d="m310.2 287.6c-6.7 2.6-12.8 6.3-18.1 10.8v-29.4c7.4 4.6 13.6 11 18.1 18.6z"></path><path d="m147.7 269v112.3h-25.1v-67.3c0-19 10.1-35.7 25.1-45z"></path><path d="m192.5 369.3h54.9v12h-54.9z"></path><path d="m270 344.5c0-.3 0-.7 0-1 0-.1 0-.2 0-.3 0-.3 0-.6.1-.9 0-.2 0-.4 0-.6 0-.1 0-.2 0-.3 1.1-13.6 6.5-26 14.9-35.9v-40c-5-2.1-10.3-3.5-15.7-4.1v48.3c0 1.9-1.6 3.5-3.5 3.5h-91.8c-1.9 0-3.5-1.6-3.5-3.5v-48.3c-.3 0-.7.1-1 .1s-.7.1-1 .1c-1 .1-2 .3-3 .5-.3.1-.7.1-1 .2-1 .2-2 .5-3 .7-2.3.6-4.5 1.4-6.7 2.4v116h30.8v-15.5c0-1.9 1.6-3.5 3.5-3.5h61.9c1.9 0 3.5 1.6 3.5 3.5v15.5h26c-1.3-1.9-2.4-3.9-3.5-6-.5-1.1-1.1-2.2-1.5-3.3-.3-.6-.6-1.3-.8-1.9-.1-.3-.3-.7-.4-1 0-.1-.1-.1-.1-.2-.1-.3-.3-.6-.4-1-.4-1.1-.8-2.2-1.1-3.3-.5-1.5-.8-2.9-1.2-4.4-.3-1.1-.5-2.2-.7-3.4-.1-.8-.2-1.5-.3-2.3-.1-.4-.1-.8-.1-1.1 0-.4-.1-.7-.1-1.1 0-.1 0-.1 0-.2 0-.3-.1-.7-.1-1.1 0-.6-.1-1.1-.1-1.7 0-.3 0-.7 0-1 0-.2 0-.5 0-.7 0-.4 0-.8 0-1.2 0-.5 0-.9 0-1.4-.1-.1-.1-.4-.1-.6zm-70.8 3.8c-7.6 0-13.7-6.2-13.7-13.7s6.2-13.7 13.7-13.7c7.6 0 13.7 6.2 13.7 13.7s-6.1 13.7-13.7 13.7zm41.4 0c-7.6 0-13.7-6.2-13.7-13.7s6.2-13.7 13.7-13.7c7.6 0 13.7 6.2 13.7 13.7s-6.1 13.7-13.7 13.7z"></path><circle cx="240.6" cy="334.6" r="6.8"></circle><circle cx="199.2" cy="334.6" r="6.8"></circle><path d="m262.4 261.1v45h-84.9v-45h13.6l26.4 26.9c.7.7 1.6 1.1 2.5 1.1s1.8-.4 2.5-1.1l26.2-26.8.1-.1z"></path><path d="m243.8 241.2v15l-23.9 24.4-23.9-24.5v-15.9c7.7 5.4 16.3 8 24.6 8 7.8 0 15.9-2.3 23.2-7z"></path><path d="m263.5 148.9h-85.7c1.7-22.2 20.3-39.7 42.8-39.7s41.2 17.5 42.9 39.7z"></path><path d="m166.7 155.9h107.8v17.7h-107.8z"></path><path d="m265.2 180.6c-1.1 24.4-9.3 41.1-19.9 50.6-.2.1-.4.3-.5.5-7.4 6.4-15.9 9.5-24.1 9.5-8.8 0-17.9-3.5-25.5-10.9-10.2-9.7-17.8-26.1-18.9-49.7z"></path></g></g></g></svg>