<svg xmlns="http://www.w3.org/2000/svg"  viewBox="0 0 256 256" width="128px" height="128px"><g id="Layer_39_1_"><path fill="#fc657e" d="M109.361,59.74V48.173c0-6.45-5.248-11.697-11.697-11.697H54.99c-6.45,0-11.697,5.247-11.697,11.697V59.74 H109.361z"/><path fill="#dae6f1" d="M40.293,61.222v6.859c0,0.818,0.663,1.482,1.482,1.482h69.104c0.818,0,1.482-0.663,1.482-1.482v-6.859 c0-0.818-0.663-1.482-1.482-1.482H41.775C40.956,59.74,40.293,60.403,40.293,61.222z"/><path fill="#5b5d60" d="M46.292,69.563v5.159c0,3.198,2.617,5.815,5.815,5.815h6.367c3.198,0,5.815-2.617,5.815-5.815v-5.159H46.292 z"/><path fill="#5b5d60" d="M88.366,69.563v5.159c0,3.198,2.617,5.815,5.815,5.815h6.367c3.198,0,5.815-2.617,5.815-5.815v-5.159H88.366 z"/><path fill="#dae6f1" d="M106.393,28.867h-5.714l1.376,8.472c-0.001,0-0.002-0.001-0.003-0.001c2.55,1.037,4.654,2.944,5.939,5.355 c3.09-0.729,5.411-3.512,5.411-6.817C113.402,32.021,110.248,28.867,106.393,28.867z"/><path fill="#dae6f1" d="M50.599,37.338l1.376-8.472h-5.714c-3.855,0-7.009,3.154-7.009,7.009c0,3.305,2.32,6.087,5.41,6.817 C45.947,40.282,48.05,38.375,50.599,37.338z"/><path fill="#5290db" d="M99.556,21.958c-0.58-3.572-3.665-6.196-7.284-6.196H60.381c-3.619,0-6.703,2.624-7.284,6.196l-2.499,15.38 c1.357-0.552,2.838-0.863,4.391-0.863h42.675c1.553,0,3.034,0.311,4.391,0.863L99.556,21.958z"/><path fill="#70d6f9" d="M109.361,139.59v-11.567c0-6.45-5.248-11.697-11.697-11.697H54.99c-6.45,0-11.697,5.247-11.697,11.697 v11.567H109.361z"/><path fill="#dae6f1" d="M40.293,141.072v6.859c0,0.818,0.663,1.482,1.482,1.482h69.104c0.818,0,1.482-0.663,1.482-1.482v-6.859 c0-0.818-0.663-1.482-1.482-1.482H41.775C40.956,139.59,40.293,140.254,40.293,141.072z"/><path fill="#5b5d60" d="M46.292,149.414v5.159c0,3.198,2.617,5.815,5.815,5.815h6.367c3.198,0,5.815-2.617,5.815-5.815v-5.159 H46.292z"/><path fill="#5b5d60" d="M88.366,149.414v5.159c0,3.198,2.617,5.815,5.815,5.815h6.367c3.198,0,5.815-2.617,5.815-5.815v-5.159 H88.366z"/><path fill="#dae6f1" d="M106.393,108.718h-5.714l1.376,8.472c-0.001,0-0.002-0.001-0.003-0.001c2.55,1.037,4.654,2.944,5.939,5.355 c3.09-0.729,5.411-3.512,5.411-6.817C113.402,111.872,110.248,108.718,106.393,108.718z"/><path fill="#dae6f1" d="M50.599,117.189l1.376-8.472h-5.714c-3.855,0-7.009,3.154-7.009,7.009c0,3.305,2.32,6.087,5.41,6.817 C45.947,120.133,48.05,118.226,50.599,117.189z"/><path fill="#5290db" d="M99.556,101.809c-0.58-3.572-3.665-6.196-7.284-6.196H60.381c-3.619,0-6.703,2.624-7.284,6.196l-2.499,15.38 c1.357-0.552,2.838-0.863,4.391-0.863h42.675c1.553,0,3.034,0.311,4.391,0.863L99.556,101.809z"/><path fill="#b2e26d" d="M109.361,219.441v-11.567c0-6.45-5.248-11.697-11.697-11.697H54.99c-6.45,0-11.697,5.247-11.697,11.697 v11.567H109.361z"/><path fill="#dae6f1" d="M40.293,220.923v6.859c0,0.818,0.663,1.482,1.482,1.482h69.104c0.818,0,1.482-0.663,1.482-1.482v-6.859 c0-0.818-0.663-1.482-1.482-1.482H41.775C40.956,219.441,40.293,220.105,40.293,220.923z"/><path fill="#5b5d60" d="M46.292,229.264v5.159c0,3.198,2.617,5.815,5.815,5.815h6.367c3.198,0,5.815-2.617,5.815-5.815v-5.159 H46.292z"/><path fill="#5b5d60" d="M88.366,229.264v5.159c0,3.198,2.617,5.815,5.815,5.815h6.367c3.198,0,5.815-2.617,5.815-5.815v-5.159 H88.366z"/><path fill="#dae6f1" d="M106.393,188.568h-5.714l1.376,8.472c-0.001,0-0.002-0.001-0.003-0.001c2.55,1.037,4.654,2.944,5.939,5.355 c3.09-0.729,5.411-3.512,5.411-6.817C113.402,191.722,110.248,188.568,106.393,188.568z"/><path fill="#dae6f1" d="M50.599,197.04l1.376-8.472h-5.714c-3.855,0-7.009,3.154-7.009,7.009c0,3.305,2.32,6.087,5.41,6.817 C45.947,199.983,48.05,198.077,50.599,197.04z"/><path fill="#5290db" d="M99.556,181.66c-0.58-3.572-3.665-6.196-7.284-6.196H60.381c-3.619,0-6.703,2.624-7.284,6.196l-2.499,15.38 c1.357-0.552,2.838-0.863,4.391-0.863h42.675c1.553,0,3.034,0.311,4.391,0.863L99.556,181.66z"/><path fill="#ef4460" d="M86.665,59.74v-5.342c0-2.9-2.373-5.273-5.273-5.273H71.262c-2.9,0-5.273,2.373-5.273,5.273v5.342H86.665z"/><path fill="#fc657e" d="M162.396,22.225h-29.841c-1.371,0-2.483,1.13-2.483,2.523v7.437c0,1.394,1.112,2.523,2.483,2.523h29.841 c1.371,0,2.483-1.13,2.483-2.523v-7.437C164.879,23.355,163.768,22.225,162.396,22.225z"/><circle cx="234.493" cy="46.753" r="15.356" fill="#f5c84c"/><path fill="#3caadc" d="M86.665,139.59v-5.342c0-2.9-2.373-5.273-5.273-5.273H71.262c-2.9,0-5.273,2.373-5.273,5.273v5.342H86.665z"/><path fill="#70d6f9" d="M162.396,102.076h-29.841c-1.371,0-2.483,1.13-2.483,2.523v7.437c0,1.394,1.112,2.523,2.483,2.523h29.841 c1.371,0,2.483-1.13,2.483-2.523v-7.437C164.879,103.206,163.768,102.076,162.396,102.076z"/><circle cx="234.493" cy="126.604" r="15.356" fill="#f5c84c"/><path fill="#87d147" d="M86.665,219.441V214.1c0-2.9-2.373-5.273-5.273-5.273H71.262c-2.9,0-5.273,2.373-5.273,5.273v5.342H86.665z"/><path fill="#b2e26d" d="M162.396,181.927h-29.841c-1.371,0-2.483,1.13-2.483,2.523v7.437c0,1.394,1.112,2.523,2.483,2.523h29.841 c1.371,0,2.483-1.13,2.483-2.523v-7.437C164.879,183.057,163.768,181.927,162.396,181.927z"/><circle cx="234.493" cy="206.455" r="15.356" fill="#f5c84c"/><path fill="#70d6f9" d="M191.819,26.5h2.3v2.3c0,1.8,1.4,3.2,3.2,3.2c1.7,0,3.2-1.4,3.2-3.1v-0.1v-2.3h2.3c1.8,0,3.2-1.4,3.2-3.2 c0-1.7-1.4-3.2-3.1-3.2h-0.1h-2.3v-2.3c0-1.8-1.4-3.2-3.2-3.2c-1.7,0-3.2,1.4-3.2,3.1v0.1v2.3h-2.3c-1.8,0-3.2,1.4-3.2,3.2 C188.519,25,189.919,26.5,191.819,26.5C191.719,26.5,191.719,26.5,191.819,26.5z"/><path fill="#87d147" d="M136.475,249.525c-3.1-0.6-5.6-3-6.2-6.1c0-0.1-0.3-0.1-0.3,0c-0.6,3.1-3.1,5.5-6.2,6.1 c-0.1,0-0.1,0.2,0,0.3c3.1,0.6,5.6,3,6.2,6.1c0,0.1,0.3,0.1,0.3,0c0.6-3.1,3.1-5.5,6.2-6.1 C136.575,249.725,136.575,249.525,136.475,249.525z"/><circle cx="21.95" cy="168.6" r="3.4" fill="#fc657e"/><circle cx="171.95" cy="3.4" r="3.4" fill="#f5c84c"/><path fill="#f5c84c" d="M3.801,131.2c4.5-0.8,8-4.3,8.9-8.7c0-0.2,0.4-0.2,0.4,0c0.9,4.4,4.4,7.9,8.9,8.7c0.2,0,0.2,0.3,0,0.4 c-4.5,0.8-8,4.3-8.9,8.7c0,0.2-0.4,0.2-0.4,0c-0.9-4.4-4.4-7.9-8.9-8.7C3.601,131.5,3.601,131.2,3.801,131.2z"/><path d="M109.361,61.188c-1.381,0-2.5-1.119-2.5-2.5V48.173c0-5.071-4.126-9.197-9.197-9.197H54.989 c-5.071,0-9.197,4.126-9.197,9.197V58.25c0,1.381-1.119,2.5-2.5,2.5s-2.5-1.119-2.5-2.5V48.173 c0-7.829,6.369-14.197,14.197-14.197h42.675c7.828,0,14.197,6.369,14.197,14.197v10.515 C111.861,60.068,110.742,61.188,109.361,61.188z"/><path d="M110.879,72.063H41.774c-2.195,0-3.981-1.786-3.981-3.982v-6.859c0-2.196,1.786-3.982,3.981-3.982h69.104 c2.195,0,3.981,1.786,3.981,3.982v6.859C114.86,70.277,113.074,72.063,110.879,72.063z M42.793,67.063h67.067V62.24H42.793 V67.063z M110.879,62.24h0.01H110.879z"/><path d="M58.473,83.036h-6.366c-4.585,0-8.314-3.73-8.314-8.314v-3.847c0-1.381,1.119-2.5,2.5-2.5s2.5,1.119,2.5,2.5v3.847 c0,1.828,1.487,3.314,3.314,3.314h6.366c1.827,0,3.314-1.487,3.314-3.314v-3.783c0-1.381,1.119-2.5,2.5-2.5s2.5,1.119,2.5,2.5 v3.783C66.787,79.306,63.058,83.036,58.473,83.036z"/><path d="M100.548,83.036h-6.367c-4.585,0-8.314-3.73-8.314-8.314v-3.847c0-1.381,1.119-2.5,2.5-2.5s2.5,1.119,2.5,2.5v3.847 c0,1.828,1.487,3.314,3.314,3.314h6.367c1.827,0,3.314-1.487,3.314-3.314v-3.783c0-1.381,1.119-2.5,2.5-2.5s2.5,1.119,2.5,2.5 v3.783C108.862,79.306,105.133,83.036,100.548,83.036z"/><path d="M108.979,44.881c-0.992,0-1.932-0.595-2.322-1.572c-0.513-1.282,0.111-2.737,1.393-3.25 c1.706-0.682,2.853-2.363,2.853-4.184c0-2.486-2.022-4.509-4.509-4.509h-4.337c-1.381,0-2.5-1.119-2.5-2.5s1.119-2.5,2.5-2.5 h4.337c5.243,0,9.509,4.266,9.509,9.509c0,3.905-2.354,7.37-5.995,8.826C109.602,44.823,109.287,44.881,108.979,44.881z"/><path d="M43.771,44.918c-0.297,0-0.599-0.053-0.893-0.166c-3.665-1.403-6.127-4.97-6.127-8.877c0-5.243,4.266-9.509,9.509-9.509 h4.864c1.381,0,2.5,1.119,2.5,2.5s-1.119,2.5-2.5,2.5h-4.864c-2.486,0-4.509,2.022-4.509,4.509c0,1.85,1.171,3.541,2.914,4.208 c1.29,0.494,1.935,1.939,1.441,3.229C45.727,44.307,44.778,44.918,43.771,44.918z"/><path d="M56.364,52.045h-2.048c-1.381,0-2.5-1.119-2.5-2.5s1.119-2.5,2.5-2.5h2.048c1.381,0,2.5,1.119,2.5,2.5 S57.745,52.045,56.364,52.045z"/><path d="M98.337,52.045H96.29c-1.381,0-2.5-1.119-2.5-2.5s1.119-2.5,2.5-2.5h2.047c1.381,0,2.5,1.119,2.5,2.5 S99.718,52.045,98.337,52.045z"/><path d="M101.996,39.493c-1.204,0-2.266-0.873-2.465-2.1l-2.443-15.035c-0.386-2.374-2.41-4.097-4.815-4.097H60.381 c-2.405,0-4.43,1.723-4.815,4.097l-2.438,15.01c-0.222,1.362-1.504,2.288-2.869,2.067c-1.362-0.222-2.288-1.506-2.066-2.869 l2.438-15.01c0.78-4.806,4.882-8.295,9.751-8.295h31.892c4.869,0,8.971,3.489,9.751,8.295l2.443,15.035 c0.222,1.363-0.704,2.647-2.066,2.869C102.265,39.482,102.129,39.493,101.996,39.493z"/><path d="M201.34,49.059h-70.873c-1.381,0-2.5-1.119-2.5-2.5s1.119-2.5,2.5-2.5h70.873c1.381,0,2.5,1.119,2.5,2.5 S202.721,49.059,201.34,49.059z"/><path d="M201.34,70.71h-70.873c-1.381,0-2.5-1.119-2.5-2.5s1.119-2.5,2.5-2.5h70.873c1.381,0,2.5,1.119,2.5,2.5 S202.721,70.71,201.34,70.71z"/><path d="M201.34,59.884h-70.873c-1.381,0-2.5-1.119-2.5-2.5s1.119-2.5,2.5-2.5h70.873c1.381,0,2.5,1.119,2.5,2.5 S202.721,59.884,201.34,59.884z"/><path d="M201.34,128.91h-70.873c-1.381,0-2.5-1.119-2.5-2.5s1.119-2.5,2.5-2.5h70.873c1.381,0,2.5,1.119,2.5,2.5 S202.721,128.91,201.34,128.91z"/><path d="M201.34,150.561h-70.873c-1.381,0-2.5-1.119-2.5-2.5s1.119-2.5,2.5-2.5h70.873c1.381,0,2.5,1.119,2.5,2.5 S202.721,150.561,201.34,150.561z"/><path d="M201.34,139.735h-70.873c-1.381,0-2.5-1.119-2.5-2.5s1.119-2.5,2.5-2.5h70.873c1.381,0,2.5,1.119,2.5,2.5 S202.721,139.735,201.34,139.735z"/><path d="M201.34,208.76h-70.873c-1.381,0-2.5-1.119-2.5-2.5s1.119-2.5,2.5-2.5h70.873c1.381,0,2.5,1.119,2.5,2.5 S202.721,208.76,201.34,208.76z"/><path d="M201.34,230.412h-70.873c-1.381,0-2.5-1.119-2.5-2.5s1.119-2.5,2.5-2.5h70.873c1.381,0,2.5,1.119,2.5,2.5 S202.721,230.412,201.34,230.412z"/><path d="M201.34,219.586h-70.873c-1.381,0-2.5-1.119-2.5-2.5s1.119-2.5,2.5-2.5h70.873c1.381,0,2.5,1.119,2.5,2.5 S202.721,219.586,201.34,219.586z"/><path d="M65.989,61.125c-1.381,0-2.5-1.119-2.5-2.5v-4.227c0-4.286,3.487-7.773,7.773-7.773h10.129 c4.286,0,7.773,3.487,7.773,7.773V58.5c0,1.381-1.119,2.5-2.5,2.5s-2.5-1.119-2.5-2.5v-4.102c0-1.529-1.244-2.773-2.773-2.773 H71.263c-1.529,0-2.773,1.244-2.773,2.773v4.227C68.489,60.005,67.37,61.125,65.989,61.125z"/><path d="M162.396,37.209h-29.841c-2.748,0-4.983-2.253-4.983-5.023v-7.437c0-2.77,2.235-5.023,4.983-5.023h29.841 c2.748,0,4.983,2.253,4.983,5.023v7.437C167.38,34.956,165.145,37.209,162.396,37.209z M132.556,24.725l0.017,7.46l29.824,0.023 l-0.017-7.46l0.017-0.023H132.556z"/><path d="M234.493,64.609c-9.846,0-17.856-8.01-17.856-17.856s8.011-17.856,17.856-17.856s17.855,8.01,17.855,17.856 S244.339,64.609,234.493,64.609z M234.493,33.897c-7.089,0-12.856,5.767-12.856,12.856s5.768,12.856,12.856,12.856 s12.855-5.767,12.855-12.856S241.582,33.897,234.493,33.897z"/><path d="M162.396,117.06h-29.841c-2.748,0-4.983-2.253-4.983-5.023v-7.438c0-2.77,2.235-5.023,4.983-5.023h29.841 c2.748,0,4.983,2.253,4.983,5.023v7.438C167.38,114.806,165.145,117.06,162.396,117.06z M132.556,104.576l0.017,7.46 l29.824,0.023l-0.017-7.46l0.017-0.023H132.556z"/><path d="M234.493,144.46c-9.846,0-17.856-8.01-17.856-17.856s8.011-17.856,17.856-17.856s17.855,8.01,17.855,17.856 S244.339,144.46,234.493,144.46z M234.493,113.748c-7.089,0-12.856,5.767-12.856,12.856s5.768,12.856,12.856,12.856 s12.855-5.767,12.855-12.856S241.582,113.748,234.493,113.748z"/><path d="M162.396,196.911h-29.841c-2.748,0-4.983-2.253-4.983-5.023v-7.437c0-2.77,2.235-5.023,4.983-5.023h29.841 c2.748,0,4.983,2.253,4.983,5.023v7.437C167.38,194.657,165.145,196.911,162.396,196.911z M132.556,184.427l0.017,7.46 l29.824,0.023l-0.017-7.46l0.017-0.023H132.556z"/><path d="M234.493,224.311c-9.846,0-17.856-8.01-17.856-17.856s8.011-17.856,17.856-17.856s17.855,8.01,17.855,17.856 S244.339,224.311,234.493,224.311z M234.493,193.599c-7.089,0-12.856,5.767-12.856,12.856s5.768,12.856,12.856,12.856 s12.855-5.767,12.855-12.856S241.582,193.599,234.493,193.599z"/><path d="M109.361,141.039c-1.381,0-2.5-1.119-2.5-2.5v-10.515c0-5.072-4.126-9.198-9.197-9.198H54.989 c-5.071,0-9.197,4.126-9.197,9.198v10.077c0,1.381-1.119,2.5-2.5,2.5s-2.5-1.119-2.5-2.5v-10.077 c0-7.829,6.369-14.198,14.197-14.198h42.675c7.828,0,14.197,6.369,14.197,14.198v10.515 C111.861,139.919,110.742,141.039,109.361,141.039z"/><path d="M110.879,151.914H41.774c-2.195,0-3.981-1.786-3.981-3.982v-6.859c0-2.196,1.786-3.982,3.981-3.982h69.104 c2.195,0,3.981,1.786,3.981,3.982v6.859C114.86,150.127,113.074,151.914,110.879,151.914z M42.793,146.914h67.067v-4.823H42.793 V146.914z M110.879,142.09h0.01H110.879z"/><path d="M58.473,162.887h-6.366c-4.585,0-8.314-3.73-8.314-8.315v-3.847c0-1.381,1.119-2.5,2.5-2.5s2.5,1.119,2.5,2.5v3.847 c0,1.828,1.487,3.315,3.314,3.315h6.366c1.827,0,3.314-1.487,3.314-3.315v-3.783c0-1.381,1.119-2.5,2.5-2.5s2.5,1.119,2.5,2.5 v3.783C66.787,159.157,63.058,162.887,58.473,162.887z"/><path d="M100.548,162.887h-6.367c-4.585,0-8.314-3.73-8.314-8.315v-3.847c0-1.381,1.119-2.5,2.5-2.5s2.5,1.119,2.5,2.5v3.847 c0,1.828,1.487,3.315,3.314,3.315h6.367c1.827,0,3.314-1.487,3.314-3.315v-3.783c0-1.381,1.119-2.5,2.5-2.5s2.5,1.119,2.5,2.5 v3.783C108.862,159.157,105.133,162.887,100.548,162.887z"/><path d="M108.979,124.732c-0.992,0-1.932-0.595-2.322-1.572c-0.513-1.282,0.111-2.737,1.393-3.25 c1.706-0.682,2.853-2.363,2.853-4.184c0-2.486-2.022-4.509-4.509-4.509h-4.337c-1.381,0-2.5-1.119-2.5-2.5s1.119-2.5,2.5-2.5 h4.337c5.243,0,9.509,4.266,9.509,9.509c0,3.905-2.354,7.37-5.995,8.826C109.602,124.674,109.287,124.732,108.979,124.732z"/><path d="M43.771,124.77c-0.297,0-0.599-0.053-0.893-0.166c-3.665-1.403-6.127-4.97-6.127-8.877c0-5.244,4.266-9.509,9.509-9.509 h4.864c1.381,0,2.5,1.119,2.5,2.5s-1.119,2.5-2.5,2.5h-4.864c-2.486,0-4.509,2.023-4.509,4.509c0,1.849,1.171,3.54,2.914,4.208 c1.29,0.494,1.935,1.939,1.441,3.229C45.726,124.158,44.777,124.77,43.771,124.77z"/><path d="M56.364,131.896h-2.048c-1.381,0-2.5-1.119-2.5-2.5s1.119-2.5,2.5-2.5h2.048c1.381,0,2.5,1.119,2.5,2.5 S57.745,131.896,56.364,131.896z"/><path d="M98.337,131.896H96.29c-1.381,0-2.5-1.119-2.5-2.5s1.119-2.5,2.5-2.5h2.047c1.381,0,2.5,1.119,2.5,2.5 S99.718,131.896,98.337,131.896z"/><path d="M101.996,119.344c-1.204,0-2.266-0.873-2.465-2.1l-2.443-15.035c-0.386-2.374-2.41-4.097-4.815-4.097H60.381 c-2.405,0-4.43,1.723-4.815,4.097l-2.438,15.01c-0.222,1.362-1.504,2.289-2.869,2.067c-1.362-0.222-2.288-1.506-2.066-2.869 l2.438-15.01c0.78-4.806,4.882-8.295,9.751-8.295h31.892c4.869,0,8.971,3.489,9.751,8.295l2.443,15.035 c0.222,1.363-0.704,2.647-2.066,2.869C102.265,119.333,102.129,119.344,101.996,119.344z"/><path d="M65.989,140.976c-1.381,0-2.5-1.119-2.5-2.5v-4.227c0-4.286,3.487-7.773,7.773-7.773h10.129 c4.286,0,7.773,3.487,7.773,7.773v4.102c0,1.381-1.119,2.5-2.5,2.5s-2.5-1.119-2.5-2.5v-4.102c0-1.529-1.244-2.773-2.773-2.773 H71.263c-1.529,0-2.773,1.244-2.773,2.773v4.227C68.489,139.856,67.37,140.976,65.989,140.976z"/><path d="M109.361,220.889c-1.381,0-2.5-1.119-2.5-2.5v-10.515c0-5.071-4.126-9.197-9.197-9.197H54.989 c-5.071,0-9.197,4.126-9.197,9.197v10.077c0,1.381-1.119,2.5-2.5,2.5s-2.5-1.119-2.5-2.5v-10.077 c0-7.829,6.369-14.197,14.197-14.197h42.675c7.828,0,14.197,6.369,14.197,14.197v10.515 C111.861,219.77,110.742,220.889,109.361,220.889z"/><path d="M110.879,231.765H41.774c-2.195,0-3.981-1.786-3.981-3.982v-6.859c0-2.196,1.786-3.982,3.981-3.982h69.104 c2.195,0,3.981,1.786,3.981,3.982v6.859C114.86,229.979,113.074,231.765,110.879,231.765z M42.793,226.765h67.067v-4.823H42.793 V226.765z M110.879,221.941h0.01H110.879z"/><path d="M58.473,242.738h-6.366c-4.585,0-8.314-3.73-8.314-8.314v-3.847c0-1.381,1.119-2.5,2.5-2.5s2.5,1.119,2.5,2.5v3.847 c0,1.828,1.487,3.314,3.314,3.314h6.366c1.827,0,3.314-1.487,3.314-3.314v-3.783c0-1.381,1.119-2.5,2.5-2.5s2.5,1.119,2.5,2.5 v3.783C66.787,239.008,63.058,242.738,58.473,242.738z"/><path d="M100.548,242.738h-6.367c-4.585,0-8.314-3.73-8.314-8.314v-3.847c0-1.381,1.119-2.5,2.5-2.5s2.5,1.119,2.5,2.5v3.847 c0,1.828,1.487,3.314,3.314,3.314h6.367c1.827,0,3.314-1.487,3.314-3.314v-3.783c0-1.381,1.119-2.5,2.5-2.5s2.5,1.119,2.5,2.5 v3.783C108.862,239.008,105.133,242.738,100.548,242.738z"/><path d="M108.979,204.583c-0.992,0-1.932-0.595-2.322-1.572c-0.513-1.282,0.111-2.737,1.393-3.25 c1.706-0.682,2.853-2.363,2.853-4.184c0-2.486-2.022-4.509-4.509-4.509h-4.337c-1.381,0-2.5-1.119-2.5-2.5s1.119-2.5,2.5-2.5 h4.337c5.243,0,9.509,4.266,9.509,9.509c0,3.905-2.354,7.37-5.995,8.826C109.602,204.525,109.287,204.583,108.979,204.583z"/><path d="M43.771,204.62c-0.297,0-0.599-0.053-0.893-0.166c-3.665-1.403-6.127-4.97-6.127-8.877c0-5.243,4.266-9.509,9.509-9.509 h4.864c1.381,0,2.5,1.119,2.5,2.5s-1.119,2.5-2.5,2.5h-4.864c-2.486,0-4.509,2.022-4.509,4.509c0,1.85,1.171,3.541,2.914,4.208 c1.29,0.494,1.935,1.939,1.441,3.229C45.727,204.009,44.778,204.62,43.771,204.62z"/><path d="M56.364,211.747h-2.048c-1.381,0-2.5-1.119-2.5-2.5s1.119-2.5,2.5-2.5h2.048c1.381,0,2.5,1.119,2.5,2.5 S57.745,211.747,56.364,211.747z"/><path d="M98.337,211.747H96.29c-1.381,0-2.5-1.119-2.5-2.5s1.119-2.5,2.5-2.5h2.047c1.381,0,2.5,1.119,2.5,2.5 S99.718,211.747,98.337,211.747z"/><path d="M101.996,199.195c-1.204,0-2.266-0.873-2.465-2.1l-2.443-15.035c-0.386-2.374-2.41-4.097-4.815-4.097H60.381 c-2.405,0-4.43,1.723-4.815,4.097l-2.438,15.01c-0.222,1.362-1.504,2.289-2.869,2.067c-1.362-0.222-2.288-1.506-2.066-2.869 l2.438-15.01c0.78-4.806,4.882-8.295,9.751-8.295h31.892c4.869,0,8.971,3.489,9.751,8.295l2.443,15.035 c0.222,1.363-0.704,2.647-2.066,2.869C102.265,199.184,102.129,199.195,101.996,199.195z"/><path d="M65.989,220.826c-1.381,0-2.5-1.119-2.5-2.5V214.1c0-4.286,3.487-7.773,7.773-7.773h10.129 c4.286,0,7.773,3.487,7.773,7.773v4.102c0,1.381-1.119,2.5-2.5,2.5s-2.5-1.119-2.5-2.5V214.1c0-1.529-1.244-2.773-2.773-2.773 H71.263c-1.529,0-2.773,1.244-2.773,2.773v4.227C68.489,219.707,67.37,220.826,65.989,220.826z"/></g></svg>