<?xml version="1.0" encoding="UTF-8"?>
<!DOCTYPE svg PUBLIC "-//W3C//DTD SVG 1.1//EN" "http://www.w3.org/Graphics/SVG/1.1/DTD/svg11.dtd">
<svg xmlns="http://www.w3.org/2000/svg" version="1.1" width="661px" height="489px" style="shape-rendering:geometricPrecision; text-rendering:geometricPrecision; image-rendering:optimizeQuality; fill-rule:evenodd; clip-rule:evenodd" xmlns:xlink="http://www.w3.org/1999/xlink">
<g><path style="opacity:1" fill="#0d0d0d" d="M 352.5,20.5 C 352.5,21.1667 352.5,21.8333 352.5,22.5C 351.471,26.789 352.971,30.1223 357,32.5C 357.483,33.448 357.649,34.448 357.5,35.5C 347.324,34.8211 337.324,33.8211 327.5,32.5C 325.792,32.3773 323.959,32.0439 322,31.5C 320.698,32.0848 319.531,32.7515 318.5,33.5C 266.614,36.9534 221.948,56.4534 184.5,92C 182.648,92.7726 181.314,92.2726 180.5,90.5C 179.053,89.1148 178.053,89.4482 177.5,91.5C 177.611,92.1174 177.944,92.6174 178.5,93C 176.331,95.8192 174.831,98.9859 174,102.5C 157.445,119.253 144.611,138.586 135.5,160.5C 128.532,161.497 121.532,161.83 114.5,161.5C 114.351,160.448 114.517,159.448 115,158.5C 118.547,154.09 122.714,150.757 127.5,148.5C 130.204,139.874 132.204,131.04 133.5,122C 133.333,119.833 133.167,117.667 133,115.5C 131.911,112.694 130.911,110.027 130,107.5C 132.5,104.333 135,101.167 137.5,98C 158.721,97.6239 173.221,87.4572 181,67.5C 181.333,62.8333 181.667,58.1667 182,53.5C 182.816,52.1772 183.983,51.5106 185.5,51.5C 186.222,52.5511 187.222,53.2178 188.5,53.5C 190.011,51.5242 190.844,49.1909 191,46.5C 191.561,45.9781 192.228,45.6448 193,45.5C 201.807,50.299 210.974,50.799 220.5,47C 232.236,42.5944 240.736,34.7611 246,23.5C 246.495,21.5273 246.662,19.5273 246.5,17.5C 249.479,16.6827 252.479,15.8494 255.5,15C 260.215,13.5265 263.881,14.8599 266.5,19C 268.957,20.5621 271.624,21.5621 274.5,22C 275.542,23.918 276.708,25.7513 278,27.5C 278.49,26.2068 278.657,24.8734 278.5,23.5C 283.179,23.3342 287.845,23.5008 292.5,24C 294.037,25.7073 295.704,27.2073 297.5,28.5C 297.34,26.8008 297.506,25.1341 298,23.5C 302.967,20.9049 307.8,18.0715 312.5,15C 315.888,12.2141 318.554,8.88072 320.5,5C 323.817,4.50166 327.15,4.33499 330.5,4.5C 330.34,6.19919 330.506,7.86586 331,9.5C 332.34,8.13224 333.674,6.7989 335,5.5C 337.358,8.32729 339.858,11.1606 342.5,14C 346.009,16.0297 349.342,18.1964 352.5,20.5 Z M 334.5,14.5 C 335.497,13.2875 336.497,13.4542 337.5,15C 336.423,15.4696 335.423,15.3029 334.5,14.5 Z M 328.5,18.5 C 329.671,19.3446 331.005,20.0113 332.5,20.5C 333.043,20.56 333.376,20.8933 333.5,21.5C 331.038,22.794 328.705,24.294 326.5,26C 324.5,26 322.5,26 320.5,26C 319.213,27.4095 318.046,28.9095 317,30.5C 315.961,29.7562 315.461,28.7562 315.5,27.5C 316.401,26.7095 317.068,25.7095 317.5,24.5C 321.747,22.6836 322.414,20.0169 319.5,16.5C 321.257,13.8523 322.59,14.1857 323.5,17.5C 325.045,18.4519 326.712,18.7852 328.5,18.5 Z M 332.5,18.5 C 331.603,17.4019 330.77,17.4019 330,18.5C 329.536,17.9056 329.369,17.2389 329.5,16.5C 331.176,15.2897 332.51,15.7897 333.5,18C 333.272,18.3988 332.938,18.5654 332.5,18.5 Z M 315.5,22.5 C 315.5,23.5 315.5,24.5 315.5,25.5C 314.07,25.4208 312.736,25.7542 311.5,26.5C 310.41,25.273 309.076,24.4396 307.5,24C 308.108,23.1301 308.941,22.6301 310,22.5C 311.887,23.7547 313.72,23.7547 315.5,22.5 Z M 339.5,27.5 C 337.915,26.9976 337.415,25.9976 338,24.5C 339.039,25.2438 339.539,26.2438 339.5,27.5 Z M 297.5,28.5 C 298.609,28.5569 299.609,28.8902 300.5,29.5C 300.5,29.8333 300.5,30.1667 300.5,30.5C 298.973,30.573 297.973,29.9063 297.5,28.5 Z M 212.5,62.5 C 213.167,63.1667 213.833,63.8333 214.5,64.5C 213.022,64.762 211.689,64.4287 210.5,63.5C 210.957,62.7025 211.624,62.3691 212.5,62.5 Z M 153.5,115.5 C 153.719,116.675 153.386,117.675 152.5,118.5C 151.893,118.376 151.56,118.043 151.5,117.5C 152.167,116.833 152.833,116.167 153.5,115.5 Z"/></g>
<g><path style="opacity:1" fill="#111111" d="M 394.5,13.5 C 399.749,14.0825 404.582,15.7492 409,18.5C 409.392,21.6272 410.225,24.6272 411.5,27.5C 410.754,28.7362 410.421,30.0695 410.5,31.5C 411.873,31.3433 413.207,31.51 414.5,32C 413.446,33.3876 413.28,34.8876 414,36.5C 415.763,39.0196 417.763,41.3529 420,43.5C 420.458,46.5576 420.124,49.5576 419,52.5C 418.439,53.0219 417.772,53.3552 417,53.5C 412.338,51.0858 407.505,49.0858 402.5,47.5C 401.5,46.1667 400.5,44.8333 399.5,43.5C 397.568,44.5202 395.568,44.6869 393.5,44C 386.469,41.866 379.469,39.866 372.5,38C 371.178,35.6807 369.678,33.514 368,31.5C 366.521,32.8731 366.688,34.3731 368.5,36C 365.757,37.9277 363.424,37.4277 361.5,34.5C 362.959,31.2854 364.459,28.2854 366,25.5C 364.5,27 363,28.5 361.5,30C 359.512,30.1805 357.512,30.0138 355.5,29.5C 355.081,26.6755 356.081,24.5088 358.5,23C 367.227,22.8766 375.894,22.21 384.5,21C 388.439,19.2089 391.772,16.7089 394.5,13.5 Z M 373.5,29.5 C 373.5,28.5 373.5,27.5 373.5,26.5C 375.31,25.0449 376.977,25.2116 378.5,27C 376.719,27.0334 375.052,27.8668 373.5,29.5 Z M 370.5,29.5 C 371.609,29.5569 372.609,29.8902 373.5,30.5C 372.053,31.8852 371.053,31.5518 370.5,29.5 Z M 383.5,34.5 C 385.332,35.1405 385.665,36.1405 384.5,37.5C 383.614,36.675 383.281,35.675 383.5,34.5 Z M 404.5,35.5 C 406.337,35.6395 406.67,36.3061 405.5,37.5C 404.702,37.0431 404.369,36.3764 404.5,35.5 Z"/></g>
<g><path style="opacity:0.259" fill="#818181" d="M 329.5,16.5 C 329.369,17.2389 329.536,17.9056 330,18.5C 330.77,17.4019 331.603,17.4019 332.5,18.5C 332.5,19.1667 332.5,19.8333 332.5,20.5C 331.005,20.0113 329.671,19.3446 328.5,18.5C 328.328,17.5084 328.662,16.8417 329.5,16.5 Z"/></g>
<g><path style="opacity:0.149" fill="#8f8f8f" d="M 352.5,20.5 C 356.289,20.7373 356.289,21.4039 352.5,22.5C 352.5,21.8333 352.5,21.1667 352.5,20.5 Z"/></g>
<g><path style="opacity:0.898" fill="#4c4c4c" d="M 317.5,24.5 C 317.068,25.7095 316.401,26.7095 315.5,27.5C 315.5,26.8333 315.5,26.1667 315.5,25.5C 315.5,24.5 315.5,23.5 315.5,22.5C 315.369,21.7611 315.536,21.0944 316,20.5C 316.21,22.0581 316.71,23.3915 317.5,24.5 Z"/></g>
<g><path style="opacity:0.114" fill="#7f7f7f" d="M 383.5,26.5 C 383.833,27.8333 384.167,27.8333 384.5,26.5C 385.885,27.3023 385.718,27.9689 384,28.5C 382.282,27.9689 382.115,27.3023 383.5,26.5 Z"/></g>
<g><path style="opacity:0.561" fill="#6b6b6b" d="M 373.5,26.5 C 373.5,27.5 373.5,28.5 373.5,29.5C 373.5,29.8333 373.5,30.1667 373.5,30.5C 372.609,29.8902 371.609,29.5569 370.5,29.5C 371.5,28.5 372.5,27.5 373.5,26.5 Z"/></g>
<g><path style="opacity:0.114" fill="#787878" d="M 300.5,29.5 C 301.791,29.2627 302.791,29.596 303.5,30.5C 302.508,30.3284 301.842,30.6618 301.5,31.5C 300.833,31.5 300.5,31.1667 300.5,30.5C 300.5,30.1667 300.5,29.8333 300.5,29.5 Z"/></g>
<g><path style="opacity:0.898" fill="#434343" d="M 327.5,32.5 C 324.609,33.4025 321.609,33.7359 318.5,33.5C 319.531,32.7515 320.698,32.0848 322,31.5C 323.959,32.0439 325.792,32.3773 327.5,32.5 Z"/></g>
<g><path style="opacity:1" fill="#111111" d="M 439.5,48.5 C 439.5,48.8333 439.5,49.1667 439.5,49.5C 439.5,50.1667 439.833,50.5 440.5,50.5C 441.962,51.4709 443.295,51.1376 444.5,49.5C 448.75,48.9188 452.416,49.9188 455.5,52.5C 455.973,53.9063 456.973,54.573 458.5,54.5C 459.167,54.5 459.5,54.1667 459.5,53.5C 461.28,52.2548 461.613,50.7548 460.5,49C 461.212,47.558 462.379,46.7247 464,46.5C 466.983,48.494 469.983,50.494 473,52.5C 473.797,60.2894 475.13,67.9561 477,75.5C 482.818,81.1425 487.652,87.4758 491.5,94.5C 491.842,95.3382 492.508,95.6716 493.5,95.5C 493.5,95.8333 493.5,96.1667 493.5,96.5C 493.5,97.5 493.5,98.5 493.5,99.5C 493.833,100.833 494.167,100.833 494.5,99.5C 495.906,99.0269 496.573,98.0269 496.5,96.5C 496.842,95.6618 497.508,95.3284 498.5,95.5C 498.711,97.4241 499.377,97.7574 500.5,96.5C 505.136,97.1489 509.802,97.6489 514.5,98C 515.252,98.6708 515.586,99.5041 515.5,100.5C 514.325,100.281 513.325,100.614 512.5,101.5C 515.687,102.865 519.02,103.699 522.5,104C 525.087,105.525 525.92,107.692 525,110.5C 524.009,113.66 522.176,116.16 519.5,118C 522.05,134.092 529.383,147.758 541.5,159C 540.391,160.861 538.725,161.695 536.5,161.5C 532.329,160.213 528.162,160.213 524,161.5C 522.289,161.561 520.956,160.894 520,159.5C 509.983,136.133 495.983,115.467 478,97.5C 476.906,95.9221 476.072,94.2554 475.5,92.5C 476.338,92.1583 476.672,91.4916 476.5,90.5C 475.918,89.0689 475.085,87.7356 474,86.5C 473.517,87.448 473.351,88.448 473.5,89.5C 473.5,89.8333 473.5,90.1667 473.5,90.5C 470.536,88.5517 467.536,86.5517 464.5,84.5C 463.476,83.1482 462.476,81.8149 461.5,80.5C 462.562,79.4246 462.562,78.4246 461.5,77.5C 460.702,77.9569 460.369,78.6236 460.5,79.5C 455.022,77.7839 451.355,74.2839 449.5,69C 447.874,69.1953 446.207,69.1953 444.5,69C 438.967,65.7383 433.634,62.2383 428.5,58.5C 428.5,57.8333 428.5,57.1667 428.5,56.5C 431.67,55.2083 432.004,53.5416 429.5,51.5C 428.833,51.5 428.167,51.5 427.5,51.5C 427.795,48.5696 429.295,46.5696 432,45.5C 434.72,46.2333 437.22,47.2333 439.5,48.5 Z M 459.5,58.5 C 459.56,57.9569 459.893,57.6236 460.5,57.5C 463.498,59.6682 466.831,60.6682 470.5,60.5C 470.245,64.4012 470.912,68.0679 472.5,71.5C 472.333,72.5 472.167,73.5 472,74.5C 470.731,73.0953 470.231,71.4286 470.5,69.5C 467.104,69.3671 466.771,68.3671 469.5,66.5C 469,65.5 468.5,64.5 468,63.5C 465.04,62.0374 462.206,60.3707 459.5,58.5 Z M 476.5,90.5 C 475.609,89.8902 474.609,89.5569 473.5,89.5C 473.351,88.448 473.517,87.448 474,86.5C 475.085,87.7356 475.918,89.0689 476.5,90.5 Z M 496.5,96.5 C 496.573,98.0269 495.906,99.0269 494.5,99.5C 494.427,97.9731 495.094,96.9731 496.5,96.5 Z M 509.5,103.5 C 509.56,102.957 509.893,102.624 510.5,102.5C 511.773,103.257 511.773,103.923 510.5,104.5C 510.5,103.833 510.167,103.5 509.5,103.5 Z M 498.5,104.5 C 501.001,104.511 501.168,105.178 499,106.5C 498.536,105.906 498.369,105.239 498.5,104.5 Z M 510.5,113.5 C 511.077,112.227 511.743,112.227 512.5,113.5C 512.03,114.463 511.363,114.463 510.5,113.5 Z M 518.5,127.5 C 519.776,128.386 519.776,129.386 518.5,130.5C 517.438,129.575 517.438,128.575 518.5,127.5 Z M 517.5,131.5 C 518.573,132.251 518.74,133.251 518,134.5C 516.272,133.648 516.105,132.648 517.5,131.5 Z"/></g>
<g><path style="opacity:1" fill="#121212" d="M 312.5,48.5 C 390.765,45.3813 451.599,76.0479 495,140.5C 499.3,147.092 502.467,154.092 504.5,161.5C 501.351,161.789 498.351,161.289 495.5,160C 459.079,94.2649 403.079,59.7649 327.5,56.5C 254.946,60.5088 200.113,93.5088 163,155.5C 160.358,158.029 157.192,159.029 153.5,158.5C 154.553,153.911 156.386,149.578 159,145.5C 194.288,88.261 245.454,55.9277 312.5,48.5 Z M 330.5,147.5 C 333.299,150.785 336.799,153.118 341,154.5C 341.749,155.635 341.583,156.635 340.5,157.5C 339.086,156.376 337.586,155.376 336,154.5C 334.812,155.563 334.312,156.897 334.5,158.5C 328.455,156.685 327.122,153.018 330.5,147.5 Z M 383.5,155.5 C 384.386,154.224 385.386,154.224 386.5,155.5C 385.575,156.562 384.575,156.562 383.5,155.5 Z"/></g>
<g><path style="opacity:0.561" fill="#6b6b6b" d="M 439.5,49.5 C 439.5,49.1667 439.5,48.8333 439.5,48.5C 441.117,49.038 442.784,49.3713 444.5,49.5C 443.295,51.1376 441.962,51.4709 440.5,50.5C 439.833,50.5 439.5,50.1667 439.5,49.5 Z"/></g>
<g><path style="opacity:0.075" fill="#919191" d="M 185.5,51.5 C 186.209,50.596 187.209,50.2627 188.5,50.5C 188.5,51.5 188.5,52.5 188.5,53.5C 187.222,53.2178 186.222,52.5511 185.5,51.5 Z"/></g>
<g><path style="opacity:0.404" fill="#777777" d="M 427.5,51.5 C 428.167,51.5 428.833,51.5 429.5,51.5C 428.699,53.0418 428.366,54.7085 428.5,56.5C 428.5,57.1667 428.5,57.8333 428.5,58.5C 423.5,56.8333 423.167,54.5 427.5,51.5 Z"/></g>
<g><path style="opacity:0.114" fill="#838383" d="M 459.5,53.5 C 458.833,53.5 458.5,53.8333 458.5,54.5C 456.973,54.573 455.973,53.9063 455.5,52.5C 456.404,51.791 456.737,50.791 456.5,49.5C 457.5,49.5 458.5,49.5 459.5,49.5C 459.5,50.8333 459.5,52.1667 459.5,53.5 Z"/></g>
<g><path style="opacity:0.561" fill="#696969" d="M 214.5,64.5 C 213.833,63.8333 213.167,63.1667 212.5,62.5C 213.496,62.5858 214.329,62.2524 215,61.5C 215.74,62.7494 215.573,63.7494 214.5,64.5 Z"/></g>
<g><path style="opacity:1" fill="#030303" d="M 398.5,81.5 C 398.973,82.9063 399.973,83.573 401.5,83.5C 416.755,89.7734 430.422,98.4401 442.5,109.5C 443.911,111.914 445.911,113.581 448.5,114.5C 450.833,116.167 452.833,118.167 454.5,120.5C 456.094,123.764 458.427,126.431 461.5,128.5C 462.419,131.089 464.086,133.089 466.5,134.5C 472.525,141.707 478.025,149.373 483,157.5C 483.544,159.845 482.544,161.179 480,161.5C 461.027,160.507 442.027,160.507 423,161.5C 417.365,159.54 412.865,156.04 409.5,151C 403.649,146.248 397.649,141.748 391.5,137.5C 390.713,135.896 389.38,135.229 387.5,135.5C 347.041,115.196 306.708,115.529 266.5,136.5C 264.973,136.427 263.973,137.094 263.5,138.5C 262.71,139.401 261.71,140.068 260.5,140.5C 258.973,140.427 257.973,141.094 257.5,142.5C 254.481,144.857 251.481,147.191 248.5,149.5C 246.251,150.08 244.585,151.413 243.5,153.5C 241.503,156.995 238.67,159.662 235,161.5C 214.552,160.75 194.386,160.583 174.5,161C 173.536,158.353 174.036,155.853 176,153.5C 180.258,145.754 185.425,138.754 191.5,132.5C 193.587,131.415 194.92,129.749 195.5,127.5C 197.788,123.544 200.788,120.211 204.5,117.5C 209.399,114.544 213.732,110.877 217.5,106.5C 217.5,105.833 217.833,105.5 218.5,105.5C 221.674,104.99 224.008,103.323 225.5,100.5C 227.147,98.6736 229.147,97.3403 231.5,96.5C 234.511,95.3307 237.178,93.664 239.5,91.5C 291.081,61.9171 344.081,58.5838 398.5,81.5 Z M 330.5,147.5 C 327.122,153.018 328.455,156.685 334.5,158.5C 334.312,156.897 334.812,155.563 336,154.5C 337.586,155.376 339.086,156.376 340.5,157.5C 341.583,156.635 341.749,155.635 341,154.5C 336.799,153.118 333.299,150.785 330.5,147.5 Z M 383.5,155.5 C 384.575,156.562 385.575,156.562 386.5,155.5C 385.386,154.224 384.386,154.224 383.5,155.5 Z"/></g>
<g><path style="opacity:0.114" fill="#878787" d="M 461.5,80.5 C 460.833,80.5 460.5,80.1667 460.5,79.5C 460.369,78.6236 460.702,77.9569 461.5,77.5C 462.562,78.4246 462.562,79.4246 461.5,80.5 Z"/></g>
<g><path style="opacity:0.004" fill="#5a5a5a" d="M 398.5,81.5 C 400.027,81.427 401.027,82.0937 401.5,83.5C 399.973,83.573 398.973,82.9063 398.5,81.5 Z"/></g>
<g><path style="opacity:0.561" fill="#696969" d="M 480.5,88.5 C 477.897,85.3746 478.23,85.0412 481.5,87.5C 481.376,88.1067 481.043,88.44 480.5,88.5 Z"/></g>
<g><path style="opacity:0.106" fill="#737373" d="M 180.5,90.5 C 179.391,90.5569 178.391,90.8902 177.5,91.5C 178.053,89.4482 179.053,89.1148 180.5,90.5 Z"/></g>
<g><path style="opacity:0.149" fill="#909090" d="M 473.5,89.5 C 474.609,89.5569 475.609,89.8902 476.5,90.5C 476.672,91.4916 476.338,92.1583 475.5,92.5C 474.5,92.1667 473.833,91.5 473.5,90.5C 473.5,90.1667 473.5,89.8333 473.5,89.5 Z"/></g>
<g><path style="opacity:0.502" fill="#4e4e4e" d="M 239.5,91.5 C 237.178,93.664 234.511,95.3307 231.5,96.5C 233.484,93.8361 236.151,92.1695 239.5,91.5 Z"/></g>
<g><path style="opacity:0.259" fill="#7a7a7a" d="M 498.5,95.5 C 497.508,95.3284 496.842,95.6618 496.5,96.5C 495.094,96.9731 494.427,97.9731 494.5,99.5C 494.167,99.5 493.833,99.5 493.5,99.5C 493.5,98.5 493.5,97.5 493.5,96.5C 494.833,96.1667 494.833,95.8333 493.5,95.5C 492.508,95.6716 491.842,95.3382 491.5,94.5C 493.124,94.6399 494.29,93.9733 495,92.5C 496.145,93.6364 497.312,94.6364 498.5,95.5 Z"/></g>
<g><path style="opacity:0.561" fill="#6e6e6e" d="M 498.5,95.5 C 499.492,95.3284 500.158,95.6618 500.5,96.5C 499.377,97.7574 498.711,97.4241 498.5,95.5 Z"/></g>
<g><path style="opacity:0.561" fill="#616161" d="M 140.5,101.5 C 141.302,100.115 141.969,100.282 142.5,102C 142.43,102.765 142.097,103.265 141.5,103.5C 141.672,102.508 141.338,101.842 140.5,101.5 Z"/></g>
<g><path style="opacity:0.024" fill="#a9aaa9" d="M 515.5,100.5 C 516.833,101.167 516.833,101.167 515.5,100.5 Z"/></g>
<g><path style="opacity:0.886" fill="#404040" d="M 225.5,100.5 C 224.008,103.323 221.674,104.99 218.5,105.5C 220.55,103.453 222.883,101.786 225.5,100.5 Z"/></g>
<g><path style="opacity:0.114" fill="#848484" d="M 509.5,103.5 C 510.167,103.5 510.5,103.833 510.5,104.5C 510.5,104.833 510.5,105.167 510.5,105.5C 509.833,105.5 509.5,105.833 509.5,106.5C 508.508,106.672 507.842,106.338 507.5,105.5C 508.167,105.5 508.5,105.167 508.5,104.5C 509.167,104.5 509.5,104.167 509.5,103.5 Z"/></g>
<g><path style="opacity:0.114" fill="#818181" d="M 509.5,106.5 C 511.028,106.517 511.528,107.184 511,108.5C 510.283,107.956 509.783,107.289 509.5,106.5 Z"/></g>
<g><path style="opacity:0.114" fill="#868686" d="M 518.5,108.5 C 518.5,109.167 518.833,109.5 519.5,109.5C 519.631,110.376 519.298,111.043 518.5,111.5C 517.224,110.386 517.224,109.386 518.5,108.5 Z"/></g>
<g><path style="opacity:0.004" fill="#434343" d="M 442.5,109.5 C 445.089,110.419 447.089,112.086 448.5,114.5C 445.911,113.581 443.911,111.914 442.5,109.5 Z"/></g>
<g><path style="opacity:0.561" fill="#616161" d="M 153.5,115.5 C 152.833,116.167 152.167,116.833 151.5,117.5C 151.281,116.325 151.614,115.325 152.5,114.5C 153.107,114.624 153.44,114.957 153.5,115.5 Z"/></g>
<g><path style="opacity:0.886" fill="#3d3d3d" d="M 217.5,106.5 C 213.732,110.877 209.399,114.544 204.5,117.5C 208.268,113.123 212.601,109.456 217.5,106.5 Z"/></g>
<g><path style="opacity:0.886" fill="#424242" d="M 454.5,120.5 C 457.573,122.569 459.906,125.236 461.5,128.5C 458.427,126.431 456.094,123.764 454.5,120.5 Z"/></g>
<g><path style="opacity:0.886" fill="#3e3e3e" d="M 195.5,127.5 C 194.92,129.749 193.587,131.415 191.5,132.5C 192.08,130.251 193.413,128.585 195.5,127.5 Z"/></g>
<g><path style="opacity:0.886" fill="#444444" d="M 461.5,128.5 C 463.914,129.911 465.581,131.911 466.5,134.5C 464.086,133.089 462.419,131.089 461.5,128.5 Z"/></g>
<g><path style="opacity:0.998" fill="#0a0a0a" d="M 346.5,161.5 C 345.849,160.909 345.182,160.243 344.5,159.5C 343.201,160.694 341.868,161.694 340.5,162.5C 336.167,162.5 331.833,162.5 327.5,162.5C 326.737,161.732 325.737,161.232 324.5,161C 325.711,160.107 325.711,159.274 324.5,158.5C 323.614,159.325 323.281,160.325 323.5,161.5C 322.883,161.611 322.383,161.944 322,162.5C 301.232,161.839 280.398,161.172 259.5,160.5C 262.91,156.762 266.91,153.762 271.5,151.5C 295.377,136.621 321.71,131.788 350.5,137C 366.479,139.74 380.312,146.573 392,157.5C 392.49,158.793 392.657,160.127 392.5,161.5C 377.167,161.5 361.833,161.5 346.5,161.5 Z M 330.5,147.5 C 327.122,153.018 328.455,156.685 334.5,158.5C 334.312,156.897 334.812,155.563 336,154.5C 337.586,155.376 339.086,156.376 340.5,157.5C 341.583,156.635 341.749,155.635 341,154.5C 336.799,153.118 333.299,150.785 330.5,147.5 Z M 383.5,155.5 C 384.575,156.562 385.575,156.562 386.5,155.5C 385.386,154.224 384.386,154.224 383.5,155.5 Z"/></g>
<g><path style="opacity:0.004" fill="#545454" d="M 387.5,135.5 C 389.38,135.229 390.713,135.896 391.5,137.5C 389.847,137.34 388.514,136.674 387.5,135.5 Z"/></g>
<g><path style="opacity:0.004" fill="#545454" d="M 266.5,136.5 C 266.027,137.906 265.027,138.573 263.5,138.5C 263.973,137.094 264.973,136.427 266.5,136.5 Z"/></g>
<g><path style="opacity:0.004" fill="#545454" d="M 260.5,140.5 C 260.027,141.906 259.027,142.573 257.5,142.5C 257.973,141.094 258.973,140.427 260.5,140.5 Z"/></g>
<g><path style="opacity:0.867" fill="#666666" d="M 333.5,143.5 C 334.776,144.386 334.776,145.386 333.5,146.5C 332.893,146.376 332.56,146.043 332.5,145.5C 333.338,145.158 333.672,144.492 333.5,143.5 Z"/></g>
<g><path style="opacity:0.004" fill="#525252" d="M 248.5,149.5 C 247.415,151.587 245.749,152.92 243.5,153.5C 244.585,151.413 246.251,150.08 248.5,149.5 Z"/></g>
<g><path style="opacity:0.039" fill="#828282" d="M 327.5,162.5 C 325.901,162.768 324.568,162.434 323.5,161.5C 323.281,160.325 323.614,159.325 324.5,158.5C 325.711,159.274 325.711,160.107 324.5,161C 325.737,161.232 326.737,161.732 327.5,162.5 Z"/></g>
<g><path style="opacity:0.039" fill="#7f7f7f" d="M 346.5,161.5 C 344.735,162.461 342.735,162.795 340.5,162.5C 341.868,161.694 343.201,160.694 344.5,159.5C 345.182,160.243 345.849,160.909 346.5,161.5 Z"/></g>
<g><path style="opacity:1" fill="#111111" d="M 97.5,177.5 C 97.5,177.833 97.5,178.167 97.5,178.5C 97.5,179.167 97.1667,179.5 96.5,179.5C 95.5655,180.568 95.2322,181.901 95.5,183.5C 98.715,184.711 101.715,184.378 104.5,182.5C 104.328,181.508 104.662,180.842 105.5,180.5C 106.167,180.5 106.833,180.5 107.5,180.5C 109.43,180.229 110.764,179.229 111.5,177.5C 112.609,177.557 113.609,177.89 114.5,178.5C 115.167,178.5 115.5,178.167 115.5,177.5C 117.249,175.469 119.249,175.135 121.5,176.5C 120.494,177.396 120.494,178.062 121.5,178.5C 121.5,179.167 121.833,179.5 122.5,179.5C 123.5,179.167 124.167,178.5 124.5,177.5C 125.204,175.656 126.537,175.156 128.5,176C 128.727,177.135 129.06,178.302 129.5,179.5C 130.23,178.066 131.23,176.9 132.5,176C 139.5,175.833 146.5,175.667 153.5,175.5C 303.492,175.413 453.492,175.58 603.5,176C 606.188,178.83 608.188,181.996 609.5,185.5C 440.656,185.503 271.989,185.503 103.5,185.5C 87.3034,186.16 71.1368,186.826 55,187.5C 54.586,187.043 54.086,186.709 53.5,186.5C 44.5156,190.356 42.6823,188.356 48,180.5C 49.6374,178.19 51.804,176.69 54.5,176C 68.5,175.333 82.5,175.333 96.5,176C 97.056,176.383 97.3893,176.883 97.5,177.5 Z M 97.5,178.5 C 99.8439,179.672 102.177,179.672 104.5,178.5C 105.298,178.957 105.631,179.624 105.5,180.5C 104.662,180.842 104.328,181.508 104.5,182.5C 103.518,181.859 102.518,181.193 101.5,180.5C 100.033,180.723 98.5333,181.056 97,181.5C 96.5357,180.906 96.369,180.239 96.5,179.5C 97.1667,179.5 97.5,179.167 97.5,178.5 Z"/></g>
<g><path style="opacity:0.58" fill="#5c5c5c" d="M 111.5,177.5 C 112.833,176.167 114.167,176.167 115.5,177.5C 114.833,177.5 114.5,177.833 114.5,178.5C 113.609,177.89 112.609,177.557 111.5,177.5 Z"/></g>
<g><path style="opacity:0.941" fill="#535353" d="M 121.5,176.5 C 122.391,177.11 123.391,177.443 124.5,177.5C 124.167,178.5 123.5,179.167 122.5,179.5C 121.833,179.5 121.5,179.167 121.5,178.5C 120.494,178.062 120.494,177.396 121.5,176.5 Z"/></g>
<g><path style="opacity:0.075" fill="#949494" d="M 107.5,180.5 C 106.833,180.5 106.167,180.5 105.5,180.5C 105.631,179.624 105.298,178.957 104.5,178.5C 102.177,179.672 99.8439,179.672 97.5,178.5C 97.5,178.167 97.5,177.833 97.5,177.5C 98.8016,176.193 100.135,176.193 101.5,177.5C 105.067,174.68 107.067,175.68 107.5,180.5 Z"/></g>
<g><path style="opacity:0.404" fill="#777777" d="M 96.5,179.5 C 96.369,180.239 96.5357,180.906 97,181.5C 98.5333,181.056 100.033,180.723 101.5,180.5C 102.518,181.193 103.518,181.859 104.5,182.5C 101.715,184.378 98.715,184.711 95.5,183.5C 95.2322,181.901 95.5655,180.568 96.5,179.5 Z"/></g>
<g><path style="opacity:1" fill="#161616" d="M 162.5,221.5 C 165.5,221.5 168.5,221.5 171.5,221.5C 169.629,228.036 165.295,231.036 158.5,230.5C 158.884,227.104 160.218,224.104 162.5,221.5 Z"/></g>
<g><path style="opacity:0.996" fill="#131313" d="M 257.5,232.5 C 267.678,231.84 273.011,236.673 273.5,247C 273.083,254.448 270.917,261.281 267,267.5C 262.729,269.496 258.229,269.996 253.5,269C 251.291,267.127 249.458,264.96 248,262.5C 244.761,250.219 247.928,240.219 257.5,232.5 Z M 260.5,240.5 C 261.496,240.414 262.329,240.748 263,241.5C 263.717,247.225 263.384,252.891 262,258.5C 261.492,260.904 260.325,261.571 258.5,260.5C 256.805,253.535 257.472,246.868 260.5,240.5 Z"/></g>
<g><path style="opacity:0.998" fill="#151515" d="M 311.5,232.5 C 319.001,230.833 324.168,233.5 327,240.5C 327.329,245.492 327.495,250.326 327.5,255C 325.881,266.306 319.548,270.972 308.5,269C 306.291,267.127 304.458,264.96 303,262.5C 301.862,254.624 302.529,246.957 305,239.5C 307.372,237.297 309.539,234.963 311.5,232.5 Z M 315.5,240.5 C 316.75,240.577 317.583,241.244 318,242.5C 318.751,247.572 318.418,252.572 317,257.5C 316.804,259.286 315.971,260.619 314.5,261.5C 312.469,259.356 311.469,257.023 311.5,254.5C 311.866,249.482 313.2,244.815 315.5,240.5 Z"/></g>
<g><path style="opacity:1" fill="#141414" d="M 484.5,232.5 C 492.544,230.766 497.71,233.766 500,241.5C 502.615,252.202 500.115,261.368 492.5,269C 481.794,271.984 475.794,267.984 474.5,257C 474.399,249.918 476.232,243.085 480,236.5C 481.397,234.93 482.897,233.596 484.5,232.5 Z M 488.5,240.5 C 489.75,240.577 490.583,241.244 491,242.5C 491.751,247.572 491.418,252.572 490,257.5C 489.585,259.291 488.585,260.624 487,261.5C 485.578,258.895 484.744,256.395 484.5,254C 484.908,249.182 486.241,244.682 488.5,240.5 Z"/></g>
<g><path style="opacity:0.941" fill="#3a3a3a" d="M 37.5,233.5 C 31.021,234.491 24.3543,234.824 17.5,234.5C 17.5,237.167 17.5,239.833 17.5,242.5C 16.5233,239.713 16.19,236.713 16.5,233.5C 23.5,233.5 30.5,233.5 37.5,233.5 Z"/></g>
<g><path style="opacity:1" fill="#111111" d="M 101.5,233.5 C 104.167,233.5 106.833,233.5 109.5,233.5C 109.334,241.84 109.5,250.173 110,258.5C 113.73,259.46 117.563,259.793 121.5,259.5C 121.784,262.777 121.451,265.943 120.5,269C 113.586,269.811 106.752,269.645 100,268.5C 99.9558,256.769 100.456,245.102 101.5,233.5 Z"/></g>
<g><path style="opacity:1" fill="#0e0e0e" d="M 135.5,233.5 C 138.518,233.335 141.518,233.502 144.5,234C 145.701,234.903 146.535,236.069 147,237.5C 149.674,248.035 151.507,258.701 152.5,269.5C 149.482,269.665 146.482,269.498 143.5,269C 142.594,267.301 142.261,265.467 142.5,263.5C 139.753,263.187 137.086,263.52 134.5,264.5C 133.691,266.071 133.357,267.738 133.5,269.5C 130.482,269.665 127.482,269.498 124.5,269C 123.978,268.439 123.645,267.772 123.5,267C 126.548,255.422 130.548,244.255 135.5,233.5 Z M 139.5,248.5 C 140.461,250.265 140.795,252.265 140.5,254.5C 139.325,254.719 138.325,254.386 137.5,253.5C 138.174,251.805 138.841,250.138 139.5,248.5 Z M 147.5,261.5 C 148.776,262.386 148.776,263.386 147.5,264.5C 146.438,263.575 146.438,262.575 147.5,261.5 Z"/></g>
<g><path style="opacity:1" fill="#131313" d="M 189.5,246.5 C 189.5,244.5 189.5,242.5 189.5,240.5C 188.209,240.263 187.209,240.596 186.5,241.5C 186.338,243.527 186.505,245.527 187,247.5C 195.566,250.301 198.566,255.968 196,264.5C 195.167,266.667 193.667,268.167 191.5,269C 185.294,270.245 179.461,269.412 174,266.5C 173.464,264.433 173.964,262.599 175.5,261C 178.516,260.336 181.349,260.836 184,262.5C 185.5,262.333 186.333,261.5 186.5,260C 183.385,256.506 179.885,253.339 176,250.5C 174.313,237.189 180.146,231.689 193.5,234C 197.13,237.05 198.297,240.883 197,245.5C 194.619,246.435 192.119,246.768 189.5,246.5 Z"/></g>
<g><path style="opacity:1" fill="#181818" d="M 274.5,233.5 C 283.418,233.183 292.251,233.516 301,234.5C 301.687,236.568 301.52,238.568 300.5,240.5C 297.973,241.214 295.473,241.88 293,242.5C 292.582,251.186 291.915,259.853 291,268.5C 288.281,269.444 285.448,269.777 282.5,269.5C 282.5,260.833 282.5,252.167 282.5,243.5C 279.881,243.768 277.381,243.435 275,242.5C 274.502,239.518 274.335,236.518 274.5,233.5 Z"/></g>
<g><path style="opacity:0.995" fill="#131313" d="M 337.5,233.5 C 353.029,230.525 358.529,236.525 354,251.5C 352.647,252.685 351.48,254.019 350.5,255.5C 352.506,258.013 353.84,260.846 354.5,264C 354.244,266.477 352.911,268.144 350.5,269C 349.5,269.667 348.5,269.667 347.5,269C 345.377,265.049 342.711,261.549 339.5,258.5C 338.676,261.785 338.176,265.118 338,268.5C 335.333,269.833 332.667,269.833 330,268.5C 329.778,257.495 330.111,246.495 331,235.5C 333.277,234.883 335.444,234.216 337.5,233.5 Z M 343.5,241.5 C 346.076,241.722 346.91,243.055 346,245.5C 341.165,251.329 339.165,250.662 340,243.5C 341.302,242.915 342.469,242.249 343.5,241.5 Z"/></g>
<g><path style="opacity:1" fill="#141414" d="M 367.5,233.5 C 371.637,233.146 375.637,233.646 379.5,235C 382.001,238.169 382.668,241.669 381.5,245.5C 376.05,247.71 372.883,246.043 372,240.5C 370.331,242.353 370.165,244.353 371.5,246.5C 375.106,248.603 378.273,251.269 381,254.5C 382.262,267.558 376.428,272.392 363.5,269C 357.444,266.624 356.944,263.457 362,259.5C 364.476,261.487 367.31,262.487 370.5,262.5C 370.657,261.127 370.49,259.793 370,258.5C 366.703,256.205 363.703,253.538 361,250.5C 358.334,242.998 360.501,237.331 367.5,233.5 Z"/></g>
<g><path style="opacity:1" fill="#0f0f0f" d="M 457.5,259.5 C 457.791,260.649 458.624,261.316 460,261.5C 463.222,260.449 465.722,258.449 467.5,255.5C 472.549,256.311 473.715,258.978 471,263.5C 464.702,270.678 457.702,272.011 450,267.5C 444.986,257.211 445.486,247.211 451.5,237.5C 458.638,231.064 465.805,231.064 473,237.5C 473.499,241.152 473.665,244.818 473.5,248.5C 469.878,249.418 466.212,249.418 462.5,248.5C 464.496,240.325 463.329,239.658 459,246.5C 457.71,250.73 457.21,255.064 457.5,259.5 Z"/></g>
<g><path style="opacity:0.993" fill="#0f0f0f" d="M 538.5,269.5 C 538.663,267.143 538.497,264.81 538,262.5C 537.329,263.252 536.496,263.586 535.5,263.5C 536.316,254.324 536.649,244.991 536.5,235.5C 542.749,233.942 549.083,233.442 555.5,234C 557,235.5 558.5,237 560,238.5C 560.667,242.833 560.667,247.167 560,251.5C 559.215,253.286 558.049,254.786 556.5,256C 552.611,257.427 548.778,258.927 545,260.5C 544.502,263.482 544.335,266.482 544.5,269.5C 542.5,269.5 540.5,269.5 538.5,269.5 Z M 546.5,242.5 C 552.126,242.264 553.46,244.431 550.5,249C 549.128,249.402 547.795,249.902 546.5,250.5C 545.271,247.801 545.271,245.135 546.5,242.5 Z"/></g>
<g><path style="opacity:0.998" fill="#0e0e0e" d="M 569.5,233.5 C 572.518,233.335 575.518,233.502 578.5,234C 579.333,234.833 580.167,235.667 581,236.5C 583.973,247.002 585.64,257.669 586,268.5C 583.263,269.61 580.429,269.777 577.5,269C 577.094,263.91 574.428,262.244 569.5,264C 568.74,265.441 568.074,266.941 567.5,268.5C 564.572,269.484 561.572,269.817 558.5,269.5C 558.709,263.326 559.876,257.326 562,251.5C 564.791,245.589 567.291,239.589 569.5,233.5 Z M 573.5,248.5 C 574.793,250.364 574.793,252.364 573.5,254.5C 572.481,252.54 572.481,250.54 573.5,248.5 Z M 582.5,263.5 C 582.5,264.167 582.167,264.5 581.5,264.5C 580.321,262.591 580.654,262.258 582.5,263.5 Z"/></g>
<g><path style="opacity:1" fill="#0d0d0d" d="M 605.5,245.5 C 606.623,246.757 607.289,246.424 607.5,244.5C 607.5,240.833 607.5,237.167 607.5,233.5C 610.722,233.108 613.722,233.608 616.5,235C 615.678,246.09 615.178,257.257 615,268.5C 612.263,269.61 609.429,269.777 606.5,269C 604.261,264.025 601.928,259.192 599.5,254.5C 598.672,259.132 598.172,263.798 598,268.5C 595.281,269.444 592.448,269.777 589.5,269.5C 589.725,257.473 590.391,245.473 591.5,233.5C 594.518,233.335 597.518,233.502 600.5,234C 602.841,237.517 604.507,241.351 605.5,245.5 Z"/></g>
<g><path style="opacity:1" fill="#121212" d="M 37.5,233.5 C 39.1667,233.5 40.8333,233.5 42.5,233.5C 42.5,236.167 42.5,238.833 42.5,241.5C 39.2893,241.012 36.456,241.679 34,243.5C 33.5002,252.16 33.3336,260.827 33.5,269.5C 30.5525,269.777 27.7191,269.444 25,268.5C 24.7744,260.334 24.6078,252 24.5,243.5C 21.9407,243.802 19.6074,243.468 17.5,242.5C 17.5,239.833 17.5,237.167 17.5,234.5C 24.3543,234.824 31.021,234.491 37.5,233.5 Z"/></g>
<g><path style="opacity:1" fill="#121212" d="M 46.5,233.5 C 54.1667,233.5 61.8333,233.5 69.5,233.5C 69.7771,236.448 69.4438,239.281 68.5,242C 63.8333,242.333 59.1667,242.667 54.5,243C 53.1667,244.333 53.1667,245.667 54.5,247C 58.1516,247.499 61.8183,247.665 65.5,247.5C 65.5,249.833 65.5,252.167 65.5,254.5C 61.8121,254.781 58.1454,255.281 54.5,256C 53.4829,257.049 53.3162,258.216 54,259.5C 58.7367,260.469 63.57,260.803 68.5,260.5C 68.7771,263.448 68.4438,266.281 67.5,269C 59.9201,269.813 52.4201,269.647 45,268.5C 44.1044,256.718 44.6044,245.052 46.5,233.5 Z"/></g>
<g><path style="opacity:1" fill="#121212" d="M 81.5,233.5 C 93.3168,231.158 98.4835,235.824 97,247.5C 93.9433,248.451 90.7766,248.784 87.5,248.5C 87.9926,246.194 88.3259,243.861 88.5,241.5C 87.1779,241.33 86.0113,241.663 85,242.5C 81.8956,247.44 80.8956,252.774 82,258.5C 82.3468,260.18 83.3468,261.18 85,261.5C 87.6667,259.5 90.3333,257.5 93,255.5C 96.0945,257.023 96.9279,259.356 95.5,262.5C 93.4936,265.006 91.1603,267.173 88.5,269C 82.2215,270.816 77.0549,269.316 73,264.5C 68.7197,251.981 71.5531,241.648 81.5,233.5 Z"/></g>
<g><path style="opacity:1" fill="#111111" d="M 216.5,234.5 C 218.874,235.686 221.208,235.686 223.5,234.5C 224.643,234.908 225.643,235.575 226.5,236.5C 227.439,240.318 228.773,243.985 230.5,247.5C 232.717,242.899 235.05,238.399 237.5,234C 240.14,233.161 242.473,233.661 244.5,235.5C 245.203,245.642 245.87,255.809 246.5,266C 246.415,267.107 246.081,268.107 245.5,269C 242.5,269.667 239.5,269.667 236.5,269C 235.726,266.595 235.226,264.095 235,261.5C 231.455,268.072 228.122,268.072 225,261.5C 224.178,264.117 223.678,266.784 223.5,269.5C 220.833,269.5 218.167,269.5 215.5,269.5C 213.95,257.841 214.283,246.174 216.5,234.5 Z"/></g>
<g><path style="opacity:0.886" fill="#4c4c4c" d="M 216.5,234.5 C 218.833,234.5 221.167,234.5 223.5,234.5C 221.208,235.686 218.874,235.686 216.5,234.5 Z"/></g>
<g><path style="opacity:0.999" fill="#101010" d="M 403.5,242.5 C 407.029,242.094 408.029,240.427 406.5,237.5C 408.549,234.749 411.382,233.416 415,233.5C 422.901,234.804 425.068,238.97 421.5,246C 424.71,247.094 426.71,249.261 427.5,252.5C 426.382,254.571 425.382,256.738 424.5,259C 428.982,263.563 428.315,267.063 422.5,269.5C 420.595,268.935 418.929,267.935 417.5,266.5C 411.966,270.47 406.466,270.47 401,266.5C 398.521,260.299 399.354,254.633 403.5,249.5C 402.305,247.106 402.305,244.773 403.5,242.5 Z M 412.5,240.5 C 413.239,240.369 413.906,240.536 414.5,241C 411.852,245.833 411.185,245.666 412.5,240.5 Z M 407.5,258.5 C 411.31,259.754 411.31,260.754 407.5,261.5C 407.5,260.5 407.5,259.5 407.5,258.5 Z"/></g>
<g><path style="opacity:1" fill="#101010" d="M 516.5,245.5 C 516.5,246.5 516.5,247.5 516.5,248.5C 517.791,248.737 518.791,248.404 519.5,247.5C 520.436,242.527 522.436,238.027 525.5,234C 528.347,233.056 530.847,233.556 533,235.5C 533.667,246.5 533.667,257.5 533,268.5C 529.943,269.451 526.777,269.784 523.5,269.5C 523.5,267.5 523.5,265.5 523.5,263.5C 524.598,262.399 524.765,261.066 524,259.5C 523.283,260.044 522.783,260.711 522.5,261.5C 519.269,268.104 516.103,268.104 513,261.5C 512.503,264.146 512.336,266.813 512.5,269.5C 510.167,269.5 507.833,269.5 505.5,269.5C 503.852,267.544 503.185,265.211 503.5,262.5C 502.167,253.501 502.167,244.501 503.5,235.5C 504.242,234.713 505.075,234.047 506,233.5C 507.87,234.509 510.037,234.676 512.5,234C 515.014,237.374 516.348,241.207 516.5,245.5 Z"/></g>
<g><path style="opacity:1" fill="#111111" d="M 628.5,242.5 C 628.694,244.912 630.027,245.912 632.5,245.5C 632.5,244.5 632.5,243.5 632.5,242.5C 633.38,239.738 634.546,237.071 636,234.5C 637.145,233.316 638.312,233.316 639.5,234.5C 640.671,235.345 642.005,236.011 643.5,236.5C 641.228,243.649 638.561,250.649 635.5,257.5C 634.5,257.5 633.5,257.5 632.5,257.5C 632.335,260.518 632.502,263.518 633,266.5C 633.383,267.056 633.883,267.389 634.5,267.5C 632.012,269.388 629.012,270.055 625.5,269.5C 625.666,265.486 625.499,261.486 625,257.5C 622.53,251.256 620.363,244.923 618.5,238.5C 618.833,234.011 621.167,232.511 625.5,234C 626.798,236.727 627.798,239.56 628.5,242.5 Z"/></g>
<g><path style="opacity:0.075" fill="#8f8f8f" d="M 643.5,236.5 C 642.005,236.011 640.671,235.345 639.5,234.5C 640.216,234.217 641.049,233.884 642,233.5C 643.039,234.244 643.539,235.244 643.5,236.5 Z"/></g>
<g><path style="opacity:0.839" fill="#4f4f4f" d="M 406.5,237.5 C 408.029,240.427 407.029,242.094 403.5,242.5C 404.11,240.566 405.11,238.899 406.5,237.5 Z"/></g>
<g><path style="opacity:0.898" fill="#4c4c4c" d="M 186.5,241.5 C 187.209,240.596 188.209,240.263 189.5,240.5C 189.5,242.5 189.5,244.5 189.5,246.5C 189.028,244.469 188.028,242.802 186.5,241.5 Z"/></g>
<g><path style="opacity:0.839" fill="#505050" d="M 628.5,242.5 C 629.458,242.953 630.292,243.619 631,244.5C 631.278,243.584 631.778,242.918 632.5,242.5C 632.5,243.5 632.5,244.5 632.5,245.5C 630.027,245.912 628.694,244.912 628.5,242.5 Z"/></g>
<g><path style="opacity:0.231" fill="#7a7b7a" d="M 607.5,244.5 C 607.289,246.424 606.623,246.757 605.5,245.5C 606.167,245.167 606.833,244.833 607.5,244.5 Z"/></g>
<g><path style="opacity:0.376" fill="#5f5f5f" d="M 516.5,245.5 C 517.222,246.551 518.222,247.218 519.5,247.5C 518.791,248.404 517.791,248.737 516.5,248.5C 516.5,247.5 516.5,246.5 516.5,245.5 Z"/></g>
<g><path style="opacity:0.573" fill="#3d3d3d" d="M 467.5,255.5 C 465.722,258.449 463.222,260.449 460,261.5C 458.624,261.316 457.791,260.649 457.5,259.5C 458.738,260.412 460.072,260.579 461.5,260C 463.114,257.873 465.114,256.373 467.5,255.5 Z"/></g>
<g><path style="opacity:0.839" fill="#5d5d5d" d="M 635.5,257.5 C 634.586,260.728 634.253,264.061 634.5,267.5C 633.883,267.389 633.383,267.056 633,266.5C 632.502,263.518 632.335,260.518 632.5,257.5C 633.5,257.5 634.5,257.5 635.5,257.5 Z"/></g>
<g><path style="opacity:0.376" fill="#7f7f7f" d="M 523.5,263.5 C 523.672,262.508 523.338,261.842 522.5,261.5C 522.783,260.711 523.283,260.044 524,259.5C 524.765,261.066 524.598,262.399 523.5,263.5 Z"/></g>
<g><path style="opacity:0.49" fill="#5c5d5c" d="M 582.5,263.5 C 583.573,264.251 583.74,265.251 583,266.5C 582.283,265.956 581.783,265.289 581.5,264.5C 582.167,264.5 582.5,264.167 582.5,263.5 Z"/></g>
<g><path style="opacity:0.839" fill="#4d4d4d" d="M 503.5,262.5 C 503.185,265.211 503.852,267.544 505.5,269.5C 504.5,269.5 503.5,269.5 502.5,269.5C 502.198,266.941 502.532,264.607 503.5,262.5 Z"/></g>
<g><path style="opacity:0.075" fill="#888888" d="M 538.5,269.5 C 537.504,269.586 536.671,269.252 536,268.5C 535.506,266.866 535.34,265.199 535.5,263.5C 536.496,263.586 537.329,263.252 538,262.5C 538.497,264.81 538.663,267.143 538.5,269.5 Z"/></g>
<g><path style="opacity:1" fill="#141414" d="M 579.5,300.5 C 587.552,301.269 595.385,301.269 603,300.5C 604.261,300.759 605.261,301.426 606,302.5C 606.527,306.748 604.86,309.748 601,311.5C 599.674,311.245 598.674,310.578 598,309.5C 595.196,311.344 592.03,312.011 588.5,311.5C 588.719,310.325 588.386,309.325 587.5,308.5C 586.174,309.99 584.674,311.324 583,312.5C 580.107,311.982 577.274,311.649 574.5,311.5C 573.369,309.926 573.202,308.259 574,306.5C 575.174,303.762 577.007,301.762 579.5,300.5 Z"/></g>
<g><path style="opacity:1" fill="#111111" d="M 447.5,301.5 C 448.167,302.167 448.833,302.833 449.5,303.5C 450.632,304.354 451.965,304.354 453.5,303.5C 456.054,302.612 458.721,302.279 461.5,302.5C 475.23,302.146 489.063,301.812 503,301.5C 510.167,301.667 517.333,301.833 524.5,302C 525.108,302.87 525.941,303.37 527,303.5C 532.741,300.982 538.574,300.982 544.5,303.5C 546.115,302.846 547.782,302.346 549.5,302C 555.81,301.626 561.976,301.46 568,301.5C 568.87,302.108 569.37,302.941 569.5,304C 568.956,306.4 568.289,308.733 567.5,311C 521.99,311.228 476.657,311.394 431.5,311.5C 422.833,311.333 414.167,311.167 405.5,311C 404.234,310.691 403.067,310.191 402,309.5C 372.594,310.913 342.928,311.58 313,311.5C 226.178,311.438 139.344,311.271 52.5,311C 52.0426,310.586 51.7093,310.086 51.5,309.5C 53.0426,306.914 54.7093,304.414 56.5,302C 186.799,301.795 317.132,301.629 447.5,301.5 Z"/></g>
<g><path style="opacity:0.525" fill="#696969" d="M 461.5,302.5 C 458.721,302.279 456.054,302.612 453.5,303.5C 454.334,302.252 455.667,301.585 457.5,301.5C 459.045,301.511 460.378,301.844 461.5,302.5 Z"/></g>
<g><path style="opacity:0.024" fill="#8e8e8e" d="M 447.5,301.5 C 448.675,301.281 449.675,301.614 450.5,302.5C 450.376,303.107 450.043,303.44 449.5,303.5C 448.833,302.833 448.167,302.167 447.5,301.5 Z"/></g>
<g><path style="opacity:0.031" fill="#8e8e8e" d="M 600.5,305.5 C 600.369,304.761 600.536,304.094 601,303.5C 602.188,304.563 602.688,305.897 602.5,307.5C 599.402,307.587 599.068,307.087 601.5,306C 601.272,305.601 600.938,305.435 600.5,305.5 Z"/></g>
<g><path style="opacity:0.525" fill="#696969" d="M 468.5,307.5 C 468.5,306.833 468.167,306.5 467.5,306.5C 467.783,305.711 468.283,305.044 469,304.5C 469.74,305.749 469.573,306.749 468.5,307.5 Z"/></g>
<g><path style="opacity:1" fill="#040404" d="M 421.5,323.5 C 442.5,323.5 463.5,323.5 484.5,323.5C 479.209,335.406 472.376,346.406 464,356.5C 415.97,409.176 356.803,428.676 286.5,415C 236.768,401.919 199.268,373.085 174,328.5C 173.51,327.207 173.343,325.873 173.5,324.5C 194.169,324.333 214.836,324.5 235.5,325C 275.695,366.88 323.029,377.547 377.5,357C 395.009,349.429 409.676,338.262 421.5,323.5 Z M 340.5,329.5 C 341.077,328.227 341.743,328.227 342.5,329.5C 342.03,330.463 341.363,330.463 340.5,329.5 Z M 368.5,336.5 C 368.298,334.011 368.798,331.677 370,329.5C 370.588,332.139 370.088,334.473 368.5,336.5 Z M 355.5,330.5 C 355.5,331.167 355.833,331.5 356.5,331.5C 355.86,333.332 354.86,333.665 353.5,332.5C 353.855,331.478 354.522,330.811 355.5,330.5 Z M 374.5,331.5 C 379.55,333.545 379.217,335.545 373.5,337.5C 372.911,335.519 373.245,333.519 374.5,331.5 Z M 368.5,336.5 C 368.719,337.675 368.386,338.675 367.5,339.5C 366.335,338.14 366.668,337.14 368.5,336.5 Z"/></g>
<g><path style="opacity:1" fill="#121212" d="M 152.5,324.5 C 156.192,323.971 159.358,324.971 162,327.5C 188.906,377.396 229.739,409.896 284.5,425C 366.181,440.38 432.015,415.213 482,349.5C 486.732,342.427 491.065,335.094 495,327.5C 497.565,325.821 500.398,325.154 503.5,325.5C 503.662,327.527 503.495,329.527 503,331.5C 465.638,400.713 407.305,436.38 328,438.5C 253.436,436.561 196.77,403.894 158,340.5C 156,336.5 154,332.5 152,328.5C 151.421,327.072 151.588,325.738 152.5,324.5 Z M 340.5,329.5 C 341.363,330.463 342.03,330.463 342.5,329.5C 341.743,328.227 341.077,328.227 340.5,329.5 Z M 368.5,336.5 C 370.088,334.473 370.588,332.139 370,329.5C 368.798,331.677 368.298,334.011 368.5,336.5 Z M 355.5,330.5 C 355.5,331.167 355.833,331.5 356.5,331.5C 355.86,333.332 354.86,333.665 353.5,332.5C 353.855,331.478 354.522,330.811 355.5,330.5 Z M 374.5,331.5 C 373.245,333.519 372.911,335.519 373.5,337.5C 379.217,335.545 379.55,333.545 374.5,331.5 Z M 368.5,336.5 C 366.668,337.14 366.335,338.14 367.5,339.5C 368.386,338.675 368.719,337.675 368.5,336.5 Z"/></g>
<g><path style="opacity:1" fill="#1b1b1b" d="M 258.5,324.5 C 263.875,324.172 269.208,324.505 274.5,325.5C 272.896,326.603 271.896,328.103 271.5,330C 272.856,331.567 273.523,333.4 273.5,335.5C 269.526,334.379 265.86,332.546 262.5,330C 260.536,328.549 259.203,326.716 258.5,324.5 Z"/></g>
<g><path style="opacity:1" fill="#0d0d0d" d="M 364.5,328.5 C 364.833,328.5 365.167,328.5 365.5,328.5C 368.518,328.665 371.518,328.498 374.5,328C 375.337,326.989 375.67,325.822 375.5,324.5C 383.528,324.169 391.528,324.502 399.5,325.5C 397.505,328.168 394.838,329.835 391.5,330.5C 389.57,334.095 386.57,336.095 382.5,336.5C 382.167,335.167 381.833,335.167 381.5,336.5C 367.757,346.357 352.257,351.357 335,351.5C 330.945,351.649 327.112,350.982 323.5,349.5C 318.524,350.498 313.524,350.665 308.5,350C 303.348,348.182 298.015,346.849 292.5,346C 289.246,344.973 286.246,343.473 283.5,341.5C 280.593,337.358 280.926,333.524 284.5,330C 283.594,328.301 283.261,326.467 283.5,324.5C 285.167,324.5 286.833,324.5 288.5,324.5C 288.5,325.5 288.5,326.5 288.5,327.5C 290.167,327.5 291.833,327.5 293.5,327.5C 293.5,326.5 293.5,325.5 293.5,324.5C 316.167,324.5 338.833,324.5 361.5,324.5C 362.041,327.652 361.041,330.152 358.5,332C 360.473,332.495 362.473,332.662 364.5,332.5C 364.5,331.167 364.5,329.833 364.5,328.5 Z M 340.5,329.5 C 341.363,330.463 342.03,330.463 342.5,329.5C 341.743,328.227 341.077,328.227 340.5,329.5 Z M 368.5,336.5 C 370.088,334.473 370.588,332.139 370,329.5C 368.798,331.677 368.298,334.011 368.5,336.5 Z M 355.5,330.5 C 355.5,331.167 355.833,331.5 356.5,331.5C 355.86,333.332 354.86,333.665 353.5,332.5C 353.855,331.478 354.522,330.811 355.5,330.5 Z M 374.5,331.5 C 373.245,333.519 372.911,335.519 373.5,337.5C 379.217,335.545 379.55,333.545 374.5,331.5 Z M 368.5,336.5 C 366.668,337.14 366.335,338.14 367.5,339.5C 368.386,338.675 368.719,337.675 368.5,336.5 Z"/></g>
<g><path style="opacity:1" fill="#0c0c0c" d="M 134.5,329.5 C 132.821,329.285 131.821,329.952 131.5,331.5C 132.167,332.833 132.833,332.833 133.5,331.5C 134.167,331.5 134.5,331.167 134.5,330.5C 135.822,330.33 136.989,330.663 138,331.5C 144.797,346.097 152.963,359.764 162.5,372.5C 163.08,374.749 164.413,376.415 166.5,377.5C 213.626,431.62 273.293,456.453 345.5,452C 372.869,449.822 398.869,442.655 423.5,430.5C 424.167,430.833 424.833,431.167 425.5,431.5C 424.41,432.609 424.41,433.609 425.5,434.5C 426.807,433.184 428.307,432.184 430,431.5C 430.192,429.423 430.692,427.423 431.5,425.5C 435.238,423.924 438.571,421.757 441.5,419C 445.195,416.651 449.195,415.151 453.5,414.5C 454.205,412.328 455.205,410.328 456.5,408.5C 464.141,401.862 471.808,395.196 479.5,388.5C 485.407,380.604 491.741,373.271 498.5,366.5C 501.687,367.837 502.354,366.837 500.5,363.5C 503.412,357.343 507.078,351.676 511.5,346.5C 513.899,339.202 517.233,332.368 521.5,326C 528.041,326.097 534.541,326.263 541,326.5C 541.52,328.289 541.187,329.956 540,331.5C 526.815,344.483 522.482,359.817 527,377.5C 527.97,382.548 525.803,385.382 520.5,386C 519.915,387.302 519.249,388.469 518.5,389.5C 515.683,389.199 515.016,387.866 516.5,385.5C 516,385.167 515.5,384.833 515,384.5C 512.949,386.241 511.116,388.241 509.5,390.5C 494.555,395.282 483.888,404.782 477.5,419C 475.85,423.346 475.183,427.846 475.5,432.5C 472.635,432.945 470.135,432.278 468,430.5C 467.51,431.793 467.343,433.127 467.5,434.5C 469.635,434.147 470.968,434.98 471.5,437C 470.201,438.326 468.868,439.66 467.5,441C 465.934,441.765 464.601,441.598 463.5,440.5C 462.411,438.883 460.744,438.05 458.5,438C 455.961,437.204 453.628,437.371 451.5,438.5C 449.015,439.272 446.515,438.938 444,437.5C 434.102,441.864 424.602,446.864 415.5,452.5C 415.589,456.323 414.089,459.323 411,461.5C 410.506,463.134 410.34,464.801 410.5,466.5C 409.127,466.343 407.793,466.51 406.5,467C 406.384,468.268 406.051,469.602 405.5,471C 399.321,475.025 393.988,474.192 389.5,468.5C 386.607,467.26 383.773,465.926 381,464.5C 380.439,465.022 379.772,465.355 379,465.5C 373.277,463.432 367.444,463.266 361.5,465C 354.085,467.089 347.085,469.922 340.5,473.5C 339.682,478.152 337.182,481.485 333,483.5C 329.262,483.347 325.429,483.18 321.5,483C 317.956,478.245 313.956,473.912 309.5,470C 304.538,468.068 299.538,466.235 294.5,464.5C 287.166,464.12 279.833,464.62 272.5,466C 267.97,468.549 263.47,471.049 259,473.5C 254.99,472.663 251.157,471.33 247.5,469.5C 246.725,465.29 245.392,461.29 243.5,457.5C 240.833,452.833 237.167,449.167 232.5,446.5C 222.901,440.799 212.734,437.466 202,436.5C 200.552,438.894 198.386,440.394 195.5,441C 189.58,440.528 184.913,437.694 181.5,432.5C 181.709,431.914 182.043,431.414 182.5,431C 181.703,427.255 181.203,423.421 181,419.5C 176.534,409.301 169.034,400.801 158.5,394C 151.782,390.294 144.782,388.96 137.5,390C 134.204,386.563 131.537,382.73 129.5,378.5C 133.14,372.676 134.307,366.343 133,359.5C 131.555,352.65 129.055,346.317 125.5,340.5C 125.087,338.11 124.421,335.777 123.5,333.5C 122.893,333.624 122.56,333.957 122.5,334.5C 120.965,332.588 118.965,331.255 116.5,330.5C 115.269,329.349 115.269,328.183 116.5,327C 118.366,326.015 120.366,325.515 122.5,325.5C 126.476,326.164 130.476,326.497 134.5,326.5C 134.5,327.5 134.5,328.5 134.5,329.5 Z M 123.5,329.5 C 124.849,328.203 126.182,328.37 127.5,330C 126.181,330.195 124.847,330.028 123.5,329.5 Z M 340.5,329.5 C 341.363,330.463 342.03,330.463 342.5,329.5C 341.743,328.227 341.077,328.227 340.5,329.5 Z M 368.5,336.5 C 370.088,334.473 370.588,332.139 370,329.5C 368.798,331.677 368.298,334.011 368.5,336.5 Z M 133.5,331.5 C 132.833,332.833 132.167,332.833 131.5,331.5C 132.396,330.494 133.062,330.494 133.5,331.5 Z M 355.5,330.5 C 355.5,331.167 355.833,331.5 356.5,331.5C 355.86,333.332 354.86,333.665 353.5,332.5C 353.855,331.478 354.522,330.811 355.5,330.5 Z M 374.5,331.5 C 373.245,333.519 372.911,335.519 373.5,337.5C 379.217,335.545 379.55,333.545 374.5,331.5 Z M 368.5,336.5 C 366.668,337.14 366.335,338.14 367.5,339.5C 368.386,338.675 368.719,337.675 368.5,336.5 Z M 513.5,355.5 C 514.885,356.574 516.051,357.907 517,359.5C 516.743,361.975 515.743,361.975 514,359.5C 513.51,358.207 513.343,356.873 513.5,355.5 Z M 516.5,364.5 C 517.289,364.783 517.956,365.283 518.5,366C 517.251,366.74 516.251,366.573 515.5,365.5C 515.5,364.833 515.833,364.5 516.5,364.5 Z M 496.5,372.5 C 497.568,371.566 498.901,371.232 500.5,371.5C 500.649,372.552 500.483,373.552 500,374.5C 498.887,373.695 497.721,373.028 496.5,372.5 Z M 520.5,375.5 C 522.337,375.639 522.67,376.306 521.5,377.5C 520.702,377.043 520.369,376.376 520.5,375.5 Z M 161.5,380.5 C 163.852,381.543 164.019,382.876 162,384.5C 160.666,383.122 160.499,381.789 161.5,380.5 Z M 494.5,388.5 C 496.188,386.613 498.188,385.447 500.5,385C 499.084,387.265 497.084,388.431 494.5,388.5 Z M 169.5,386.5 C 173.445,388.293 174.279,390.96 172,394.5C 171.508,393.451 171.674,392.451 172.5,391.5C 171.675,390.614 170.675,390.281 169.5,390.5C 169.5,389.167 169.5,387.833 169.5,386.5 Z M 181.5,405.5 C 182.643,405.908 183.643,406.575 184.5,407.5C 182.604,408.639 181.604,407.973 181.5,405.5 Z M 404.5,442.5 C 405.5,442.5 406.5,442.5 407.5,442.5C 407.723,445.114 406.556,446.781 404,447.5C 404.019,445.893 404.185,444.226 404.5,442.5 Z M 415.5,452.5 C 413.775,452.157 413.275,451.157 414,449.5C 415.039,450.244 415.539,451.244 415.5,452.5 Z M 340.5,473.5 C 338.456,472.969 336.789,471.802 335.5,470C 337.772,470.077 339.438,471.243 340.5,473.5 Z"/></g>
<g><path style="opacity:0.149" fill="#959595" d="M 369.5,324.5 C 371.429,324.231 373.095,324.731 374.5,326C 372.5,326.667 370.5,326.667 368.5,326C 369.056,325.617 369.389,325.117 369.5,324.5 Z"/></g>
<g><path style="opacity:0.259" fill="#898989" d="M 365.5,328.5 C 365.167,328.5 364.833,328.5 364.5,328.5C 362.206,326.959 362.206,325.625 364.5,324.5C 366.642,325.437 366.976,326.77 365.5,328.5 Z"/></g>
<g><path style="opacity:0.867" fill="#4e4e4e" d="M 348.5,331.5 C 349.009,330.659 348.343,330.159 346.5,330C 347.667,329.5 348.5,328.667 349,327.5C 350.632,329.027 350.799,330.693 349.5,332.5C 348.893,332.376 348.56,332.043 348.5,331.5 Z"/></g>
<g><path style="opacity:0.561" fill="#656565" d="M 134.5,329.5 C 134.5,329.833 134.5,330.167 134.5,330.5C 134.5,331.167 134.167,331.5 133.5,331.5C 133.062,330.494 132.396,330.494 131.5,331.5C 131.821,329.952 132.821,329.285 134.5,329.5 Z"/></g>
<g><path style="opacity:0.039" fill="#959595" d="M 356.5,331.5 C 355.833,331.5 355.5,331.167 355.5,330.5C 357.439,328.011 357.772,328.344 356.5,331.5 Z"/></g>
<g><path style="opacity:0.024" fill="#a9aaa9" d="M 381.5,336.5 C 381.833,336.5 382.167,336.5 382.5,336.5C 382.315,337.17 381.981,337.17 381.5,336.5 Z"/></g>
<g><path style="opacity:0.024" fill="#a9aaa9" d="M 381.5,337.5 C 380.833,338.167 380.833,338.167 381.5,337.5 Z"/></g>
<g><path style="opacity:0.016" fill="#404040" d="M 122.5,334.5 C 122.56,333.957 122.893,333.624 123.5,333.5C 124.421,335.777 125.087,338.11 125.5,340.5C 124.015,338.751 123.015,336.751 122.5,334.5 Z"/></g>
<g><path style="opacity:0.867" fill="#5b5b5b" d="M 304.5,346.5 C 305.946,345.387 307.613,345.22 309.5,346C 308.255,346.791 306.922,347.291 305.5,347.5C 305.5,346.833 305.167,346.5 304.5,346.5 Z"/></g>
<g><path style="opacity:0.125" fill="#8d8e8d" d="M 516.5,364.5 C 515.833,364.5 515.5,364.833 515.5,365.5C 514.957,365.44 514.624,365.107 514.5,364.5C 515.257,363.227 515.923,363.227 516.5,364.5 Z"/></g>
<g><path style="opacity:0.902" fill="#575757" d="M 500.5,363.5 C 502.354,366.837 501.687,367.837 498.5,366.5C 498.932,365.29 499.599,364.29 500.5,363.5 Z"/></g>
<g><path style="opacity:0.125" fill="#7f7f7f" d="M 510.5,370.5 C 510.833,370.5 511.167,370.5 511.5,370.5C 511.5,371.167 511.5,371.833 511.5,372.5C 510.833,372.5 510.167,372.5 509.5,372.5C 509.833,371.833 510.167,371.167 510.5,370.5 Z"/></g>
<g><path style="opacity:0.545" fill="#424242" d="M 162.5,372.5 C 164.587,373.585 165.92,375.251 166.5,377.5C 164.413,376.415 163.08,374.749 162.5,372.5 Z"/></g>
<g><path style="opacity:0.016" fill="#3b3b3b" d="M 518.5,389.5 C 515.766,390.984 514.266,389.984 514,386.5C 513.252,388.751 511.752,390.084 509.5,390.5C 511.116,388.241 512.949,386.241 515,384.5C 515.5,384.833 516,385.167 516.5,385.5C 515.016,387.866 515.683,389.199 518.5,389.5 Z"/></g>
<g><path style="opacity:0.561" fill="#616161" d="M 470.5,422.5 C 472.337,422.639 472.67,423.306 471.5,424.5C 470.702,424.043 470.369,423.376 470.5,422.5 Z"/></g>
<g><path style="opacity:0.902" fill="#424242" d="M 431.5,428.5 C 433.512,429.228 435.512,430.062 437.5,431C 434.797,431.605 432.797,430.772 431.5,428.5 Z"/></g>
<g><path style="opacity:0.561" fill="#6c6c6c" d="M 421.5,441.5 C 420.833,441.5 420.5,441.833 420.5,442.5C 418.661,441.492 417.328,439.992 416.5,438C 418.232,438.798 419.899,439.965 421.5,441.5 Z"/></g>
<g><path style="opacity:0.545" fill="#414141" d="M 451.5,438.5 C 453.628,437.371 455.961,437.204 458.5,438C 460.744,438.05 462.411,438.883 463.5,440.5C 459.64,439.196 455.64,438.529 451.5,438.5 Z"/></g>
<g><path style="opacity:0.016" fill="#303030" d="M 232.5,446.5 C 237.167,449.167 240.833,452.833 243.5,457.5C 239.5,454.167 235.833,450.5 232.5,446.5 Z"/></g>
<g><path style="opacity:0.561" fill="#585858" d="M 405.5,450.5 C 407.337,450.639 407.67,451.306 406.5,452.5C 405.702,452.043 405.369,451.376 405.5,450.5 Z"/></g>
<g><path style="opacity:0.125" fill="#777777" d="M 265.5,453.5 C 266.713,454.497 266.546,455.497 265,456.5C 264.53,455.423 264.697,454.423 265.5,453.5 Z"/></g>
<g><path style="opacity:0.024" fill="#a9aaa9" d="M 407.5,467.5 C 408.833,468.167 408.833,468.167 407.5,467.5 Z"/></g>
</svg>
